<svg width="13" height="13" viewBox="0 0 13 13" fill="none" xmlns="http://www.w3.org/2000/svg">
<path d="M9.29125 0C9.4663 2.30927e-05 9.63526 0.0642927 9.76608 0.180619C9.8969 0.296944 9.98047 0.457236 10.001 0.63109L10.006 0.714711V1.42942H11.4354C11.796 1.42931 12.1433 1.56551 12.4078 1.81072C12.6722 2.05593 12.8342 2.39203 12.8612 2.75164L12.8648 2.85884V11.4354C12.8649 11.796 12.7287 12.1433 12.4835 12.4078C12.2383 12.6722 11.9022 12.8342 11.5426 12.8612L11.4354 12.8648H1.42942C1.0688 12.8649 0.721453 12.7287 0.457024 12.4835C0.192594 12.2383 0.0306207 11.9022 0.00357371 11.5426L7.16627e-08 11.4354V2.85884C-0.000114053 2.49822 0.136086 2.15088 0.381296 1.88645C0.626507 1.62202 0.962605 1.46004 1.32222 1.433L1.42942 1.42942H2.85884V0.714711C2.85905 0.532546 2.9288 0.357333 3.05385 0.224871C3.17891 0.092409 3.34982 0.0126968 3.53167 0.00202112C3.71352 -0.00865461 3.89259 0.0505119 4.03228 0.167432C4.17197 0.284352 4.26175 0.4502 4.28326 0.63109L4.28827 0.714711V1.42942H8.57654V0.714711C8.57654 0.525158 8.65183 0.343368 8.78587 0.209334C8.9199 0.0752997 9.10169 0 9.29125 0ZM11.4354 6.4324H1.42942V11.4354H11.4354V6.4324ZM11.4354 2.85884H1.42942V5.00298H11.4354V2.85884Z" fill="#F56F22"/>
</svg>
