<svg width="58" height="65" viewBox="0 0 58 65" fill="none" xmlns="http://www.w3.org/2000/svg">
<path fill-rule="evenodd" clip-rule="evenodd" d="M56.1186 40.7675L50.3612 34.936C49.8284 36.1696 49.3647 37.4067 48.9564 38.6683L50.3681 40.1017C50.8456 40.5818 51.0843 41.1285 50.901 41.3143L33.812 58.6232C33.6286 58.809 33.0889 58.5672 32.6114 58.087L5.58531 30.713C5.11129 30.2294 4.87255 29.6862 5.05593 29.4969L22.1449 12.1879C22.2867 12.0477 22.6327 12.1564 23.003 12.4297C23.5635 11.2802 24.1655 10.1553 24.8022 9.04785L23.6258 7.8563C22.5878 6.80844 20.8924 6.80494 19.8544 7.8563L0.775905 27.1769C-0.258635 28.2283 -0.258635 29.949 0.775905 30.9969L11.6299 41.9906L20.408 50.8817L33.2722 63.9081C34.3102 64.963 36.0091 64.963 37.0436 63.9081L56.1186 44.5875C57.1566 43.5396 57.1566 41.8189 56.1186 40.7675ZM7.42949 22.3967L15.1349 14.5956C15.4705 14.2556 16.0172 14.2556 16.3528 14.5956H16.3563C16.6885 14.9355 16.6885 15.4927 16.3563 15.8327L8.65087 23.6338C8.31525 23.9737 7.76511 23.9737 7.42949 23.6338C7.09387 23.2939 7.09387 22.7366 7.42949 22.3967ZM46.8458 52.6655L45.0189 54.5159C44.7179 54.8208 44.2231 54.8208 43.9187 54.5159L42.0918 52.6655C41.7908 52.3606 41.7908 51.8594 42.0918 51.551L43.9187 49.7041C44.2231 49.3957 44.7179 49.3957 45.0189 49.7041L46.8458 51.551C47.1469 51.8594 47.1469 52.3606 46.8458 52.6655Z" fill="white"/>
<path fill-rule="evenodd" clip-rule="evenodd" d="M55.7311 16.9052L50.5308 12.8855C49.3751 14.417 47.5517 15.4052 45.4999 15.4052C42.0088 15.4052 39.175 12.5385 39.175 8.99892C39.175 7.53752 39.6594 6.18827 40.4725 5.11237L35.5835 1.33447C34.0577 0.153433 33.4972 -0.687659 32.1962 0.784252C25.0755 8.84122 20.4737 18.8747 18.9928 29.6092L18.0344 41.5807L33.4729 57.2145V57.2215L46.3788 44.1531C46.486 42.8459 46.6313 41.6789 46.8355 40.9534C47.2991 37.6697 48.2956 34.5366 49.6415 31.5332L49.5758 31.4981L49.4339 31.4175L49.2921 31.3404L49.1502 31.2598L49.0084 31.1792L48.8665 31.0986L48.7246 31.018L48.6727 30.99L49.2921 29.879L49.344 29.9071L49.4824 29.9877L49.6208 30.0648L49.7626 30.1454L49.9045 30.226L50.0429 30.3031L50.1778 30.3802C51.9597 26.6864 54.2433 23.1853 56.6861 19.8245C57.8487 18.2229 57.257 18.0827 55.7311 16.9052ZM39.7459 23.8197L39.8255 23.8722L39.957 23.9669L40.0885 24.058L40.22 24.1491L40.3514 24.2437L40.4864 24.3348L40.7493 24.5171L40.8843 24.6082L41.0158 24.6993L41.1472 24.7904L41.2822 24.8815L41.4137 24.9727L41.5486 25.0603L41.6801 25.1514L41.815 25.2425H41.8185L41.123 26.3044H41.1196L40.8497 26.1222L40.7147 26.031L40.4449 25.8488L40.3099 25.7542L40.175 25.6631L40.0435 25.5719L39.9086 25.4808L39.7736 25.3862L39.6421 25.2951L39.5072 25.2005L39.3723 25.1093L39.2408 25.0147L39.1058 24.9201L39.0263 24.864L39.7459 23.8197ZM36.6942 21.6013H36.6977L36.8257 21.6994L36.9537 21.794L37.0852 21.8922L37.2132 21.9868L37.3412 22.0814L37.4727 22.1795L37.6007 22.2742L37.7322 22.3688L37.8602 22.4669L37.9917 22.5615L38.1232 22.6562L38.2512 22.7508L38.3827 22.8454L38.5142 22.94L38.6422 23.0346L38.7218 23.0907L37.9917 24.1281L37.9121 24.072L37.7807 23.9774L37.6492 23.8827L37.5177 23.7846L37.3862 23.69L37.2547 23.5954L37.1233 23.4972L36.9918 23.4026L36.8603 23.3045L36.7288 23.2099L36.6008 23.1117L36.4693 23.0136L36.3378 22.919L36.2064 22.8209L36.0783 22.7227L35.9469 22.6246H35.9434L36.6942 21.6013ZM33.7117 19.2848L33.7705 19.3303L33.8951 19.4285L34.0196 19.5301L34.1477 19.6317L34.2722 19.7299L34.4002 19.8315L34.5248 19.9296L34.6528 20.0312L34.7808 20.1294L34.9054 20.2275L35.0334 20.3291L35.1614 20.4273L35.2894 20.5254L35.414 20.6235L35.542 20.7216L35.67 20.8233L35.6943 20.8373L34.9296 21.8536L34.9089 21.8361L34.7808 21.738L34.6528 21.6398L34.5213 21.5382L34.3933 21.4401L34.2653 21.3384L34.1373 21.2368L34.0093 21.1387L33.8812 21.0371L33.7532 20.9354L33.6252 20.8373L33.4972 20.7357L33.2411 20.5324L33.1166 20.4308L32.9885 20.3291L32.9297 20.2836L33.7117 19.2848ZM30.8053 16.8736L30.9091 16.9648L31.0336 17.0699L31.1547 17.175L31.2793 17.2767L31.4039 17.3818L31.525 17.4869L31.6495 17.5921L31.7741 17.6937L31.8987 17.7988L32.0197 17.9005L32.1443 18.0056L32.2689 18.1072L32.3934 18.2089L32.518 18.3105L32.6425 18.4156L32.736 18.4928L31.9436 19.481L31.8502 19.4039L31.7222 19.3023L31.5976 19.1972L31.4731 19.0955L31.345 18.9904L31.2205 18.8853L31.0959 18.7801L30.9714 18.6785L30.7222 18.4682L30.5977 18.3631L30.4731 18.2579L30.224 18.0477L30.0994 17.939L29.9922 17.8479L30.8053 16.8736ZM27.975 14.3749L28.0061 14.4029L28.1238 14.5116L28.2449 14.6202L28.3625 14.7289L28.4836 14.8375L28.6047 14.9461L28.7224 15.0513L28.8435 15.1599L28.9646 15.2686L29.0857 15.3737L29.2068 15.4823L29.3279 15.591L29.449 15.6961L29.5701 15.8013L29.6912 15.9099L29.8123 16.015L29.8538 16.0501L29.0303 17.0173L28.9888 16.9823L28.8677 16.8736L28.7431 16.765L28.622 16.6564L28.4975 16.5512L28.3764 16.4426L28.2553 16.3339L28.1342 16.2253L28.0096 16.1167L27.8885 16.008L27.7674 15.8994L27.6463 15.7907L27.5252 15.6786L27.4041 15.57L27.283 15.4613L27.1619 15.3527L27.1308 15.3211L27.975 14.3749ZM25.2208 11.785L25.297 11.8586L25.4111 11.9708L25.5288 12.0829L25.643 12.1951L25.7606 12.3072L25.8782 12.4194L25.9959 12.5315L26.1135 12.6401L26.2277 12.7523L26.3453 12.8644L26.463 12.9766L26.5806 13.0852L26.6983 13.1974L26.8159 13.306L26.937 13.4182L27.0477 13.5233L26.1931 14.459L26.0824 14.3539L25.9647 14.2452L25.8436 14.1331L25.726 14.0209L25.6049 13.9088L25.4873 13.7967L25.3696 13.6845L25.252 13.5724L25.1309 13.4602L25.0132 13.3446L24.8956 13.2324L24.778 13.1203L24.6603 13.0046L24.5427 12.8925L24.425 12.7803L24.3489 12.7067L25.2208 11.785ZM41.9742 35.1779C41.7562 35.3566 41.4898 35.3076 41.2441 35.3111C40.4449 35.3146 39.6525 35.227 38.8567 35.2305C38.7944 35.2305 38.6111 35.2235 38.5765 35.269L38.009 36.6183C37.9917 36.7304 38.1163 36.804 38.1613 36.8846C38.8775 38.1252 38.1094 39.8144 36.7288 39.9862L35.8396 44.5C35.7566 44.8575 35.459 45.0572 35.1614 45.0467C34.5352 44.6823 33.5802 44.5035 32.9955 44.1145C32.9055 44.0514 32.8156 43.8727 32.8017 43.75C32.7602 43.4241 32.9643 43.1788 33.1339 42.916C33.646 42.1309 34.2342 41.3599 34.7635 40.5854C35.0196 40.214 35.2687 39.8355 35.5109 39.4605C34.5975 38.2935 35.542 36.2363 36.9987 36.2538L37.4312 35.227C37.3828 35.1954 37.3309 35.1919 37.2755 35.1884C35.4452 35.0202 33.4487 35.1954 31.6011 35.0553C31.2101 35.0272 31.1513 35.0132 30.8537 34.7434C29.4559 33.4782 28.1757 31.9537 26.7917 30.657L26.674 30.587L25.6533 33.0121C26.2588 34.3438 27.1896 35.4478 28.2899 36.2608C29.8434 37.4068 31.7049 38.0516 33.6459 38.1182C34.0369 38.1323 34.5767 37.936 34.7462 38.4301C34.8535 38.742 34.6874 39.1416 34.4002 39.2958C34.1338 39.443 32.774 39.3413 32.4349 39.2993C29.4109 38.9173 26.0512 36.8881 24.7191 33.8217C24.5946 33.5378 24.4423 33.2119 24.56 32.8649C24.8852 31.8801 25.4769 30.8428 25.8298 29.851L25.8436 29.7283L23.6604 27.531C23.3905 27.142 23.6396 26.5322 24.1102 26.4656L34.6148 26.767C37.1786 29.1956 39.6456 31.7645 42.161 34.2632C42.3167 34.5821 42.2752 34.9256 41.9742 35.1779ZM44.3166 28.3826L44.2578 28.344L44.1194 28.2564L43.981 28.1688L43.8426 28.0847L43.7076 27.9971L43.5692 27.9095L43.4308 27.8219L43.2959 27.7343L43.1575 27.6466L43.0226 27.5555L42.8842 27.4679L42.7492 27.3803L42.6108 27.2927L42.4759 27.2016L42.3375 27.1139L42.2025 27.0228L42.1783 27.0088L42.8669 25.9399L42.8876 25.9539L43.0226 26.0416L43.1575 26.1327L43.2924 26.2203L43.6973 26.4831L43.8322 26.5672L43.9671 26.6548L44.1055 26.7425L44.2405 26.8301L44.3754 26.9177L44.5104 27.0018L44.6488 27.0894L44.7837 27.1735L44.9186 27.2611L44.9809 27.2962L44.3166 28.3826ZM47.5759 30.3557L47.4583 30.2856L47.3164 30.2015L47.1746 30.1208L47.0362 30.0367L46.8943 29.9561L46.7559 29.872L46.6175 29.7879L46.4756 29.7038L46.3372 29.6232L46.1988 29.5391L46.057 29.455L45.9186 29.3709L45.7802 29.2833L45.6418 29.1992L45.4999 29.115L45.3961 29.052L46.0466 27.9585L46.1539 28.0251L46.2888 28.1092L46.4272 28.1898L46.704 28.3581L46.8389 28.4422L46.9773 28.5228L47.1157 28.6069L47.2541 28.691L47.3925 28.7716L47.5309 28.8557L47.6693 28.9363L47.8077 29.0204L47.9496 29.101L48.088 29.1816L48.2056 29.2517L47.5759 30.3557ZM25.9924 27.7623L25.7122 27.8078L29.961 32.0589L31.6945 33.7936L36.0818 33.8847C36.106 33.8322 35.8984 33.7165 35.8534 33.685C34.9123 33.0296 33.9366 32.4128 33.0058 31.7435C32.8605 31.6383 32.5457 31.4351 32.4488 31.3054C32.21 30.9935 32.4557 30.3732 32.8363 30.275C33.082 30.212 33.255 30.3557 33.4487 30.4783C35.1995 31.5682 36.8188 32.9665 38.6076 33.9794C39.0539 33.9198 39.5937 34.0705 40.0262 34.0074C40.0643 34.0004 40.0746 34.0495 40.0989 33.9478L34.1096 27.9831L25.9924 27.7623ZM37.0022 37.5225C36.2098 37.2912 35.9469 38.7491 36.7288 38.7385C37.3655 38.728 37.5558 37.6872 37.0022 37.5225ZM34.2342 43.2629L34.9089 43.5538C35.0161 43.0877 35.1165 42.6181 35.1995 42.1485C35.2168 42.0433 35.2687 41.8681 35.2203 41.777L34.2342 43.2629Z" fill="#F56F22"/>
</svg>
