<svg width="207" height="234" viewBox="0 0 207 234" fill="none" xmlns="http://www.w3.org/2000/svg">
<path fill-rule="evenodd" clip-rule="evenodd" d="M202.448 147.069L181.678 126.032C179.756 130.482 178.083 134.945 176.61 139.496L181.703 144.667C183.426 146.399 184.287 148.372 183.625 149.042L121.977 211.484C121.315 212.154 119.368 211.282 117.646 209.549L20.149 110.798C18.439 109.053 17.5777 107.093 18.2393 106.411L79.8877 43.9684C80.3994 43.4627 81.6476 43.8546 82.9832 44.8407C85.0053 40.694 87.1771 36.6357 89.4738 32.6406L85.2299 28.3421C81.4853 24.5619 75.3692 24.5493 71.6246 28.3421L2.79908 98.0411C-0.933027 101.834 -0.933027 108.041 2.79908 111.822L41.955 151.482L73.6217 183.556L120.03 230.549C123.774 234.354 129.903 234.354 133.635 230.549L202.448 160.85C206.193 157.07 206.193 150.862 202.448 147.069ZM26.8019 80.7965L54.5992 52.6539C55.81 51.4276 57.7821 51.4276 58.9929 52.6539H59.0053C60.2036 53.8803 60.2036 55.8904 59.0053 57.1168L31.208 85.2594C29.9973 86.4857 28.0126 86.4857 26.8019 85.2594C25.5911 84.033 25.5911 82.0228 26.8019 80.7965ZM168.996 189.991L162.406 196.667C161.32 197.766 159.535 197.766 158.437 196.667L151.846 189.991C150.76 188.891 150.76 187.083 151.846 185.971L158.437 179.308C159.535 178.196 161.32 178.196 162.406 179.308L168.996 185.971C170.082 187.083 170.082 188.891 168.996 189.991Z" fill="#272727"/>
<path fill-rule="evenodd" clip-rule="evenodd" d="M201.05 60.9855L182.29 46.4843C178.121 52.0092 171.543 55.5744 164.141 55.5744C151.547 55.5744 141.324 45.2327 141.324 32.4636C141.324 27.1916 143.071 22.3242 146.005 18.4429L128.368 4.81409C122.863 0.55351 120.841 -2.48073 116.148 2.82919C90.4599 31.8947 73.8589 68.0907 68.5166 106.815L65.0591 150.003L120.754 206.401V206.427L167.311 159.282C167.698 154.567 168.223 150.357 168.959 147.739C170.632 135.893 174.226 124.591 179.082 113.756L178.845 113.63L178.333 113.339L177.821 113.061L177.309 112.77L176.798 112.479L176.286 112.188L175.774 111.898L175.587 111.796L177.821 107.789L178.008 107.89L178.508 108.181L179.007 108.459L179.519 108.749L180.03 109.04L180.53 109.318L181.017 109.597C187.445 96.2712 195.683 83.6411 204.495 71.5168C208.689 65.7391 206.555 65.2334 201.05 60.9855ZM143.383 85.9295L143.671 86.1191L144.145 86.4605L144.619 86.7892L145.093 87.1179L145.568 87.4592L146.055 87.7879L147.003 88.4454L147.49 88.7741L147.964 89.1028L148.439 89.4315L148.925 89.7602L149.4 90.0889L149.887 90.405L150.361 90.7337L150.848 91.0624H150.86L148.351 94.8931H148.339L147.365 94.2357L146.878 93.907L145.905 93.2496L145.418 92.9082L144.931 92.5795L144.457 92.2508L143.97 91.9221L143.483 91.5807L143.009 91.252L142.522 90.9107L142.035 90.582L141.561 90.2406L141.074 89.8993L140.787 89.697L143.383 85.9295ZM132.374 77.9267H132.387L132.849 78.2806L133.31 78.622L133.785 78.976L134.247 79.3174L134.708 79.6587L135.183 80.0127L135.645 80.354L136.119 80.6954L136.581 81.0494L137.055 81.3907L137.529 81.7321L137.991 82.0734L138.466 82.4148L138.94 82.7562L139.402 83.0975L139.689 83.2998L137.055 87.042L136.768 86.8397L136.294 86.4984L135.819 86.157L135.345 85.803L134.871 85.4617L134.396 85.1203L133.922 84.7663L133.448 84.425L132.973 84.071L132.499 83.7296L132.037 83.3756L131.563 83.0217L131.089 82.6803L130.614 82.3263L130.153 81.9723L129.678 81.6183H129.666L132.374 77.9267ZM121.615 69.5698L121.827 69.7342L122.276 70.0882L122.726 70.4548L123.188 70.8215L123.637 71.1755L124.099 71.5421L124.548 71.8961L125.01 72.2627L125.472 72.6167L125.921 72.9707L126.383 73.3374L126.845 73.6914L127.307 74.0454L127.756 74.3993L128.218 74.7533L128.68 75.12L128.767 75.1706L126.009 78.8369L125.934 78.7737L125.472 78.4197L125.01 78.0657L124.536 77.6991L124.074 77.3451L123.612 76.9785L123.15 76.6118L122.688 76.2578L122.227 75.8912L121.765 75.5246L121.303 75.1706L120.841 74.8039L119.917 74.0706L119.468 73.704L119.006 73.3374L118.794 73.173L121.615 69.5698ZM111.13 60.8717L111.505 61.2004L111.954 61.5797L112.391 61.959L112.84 62.3256L113.289 62.7049L113.726 63.0842L114.176 63.4634L114.625 63.8301L115.074 64.2094L115.511 64.576L115.961 64.9553L116.41 65.3219L116.859 65.6885L117.309 66.0552L117.758 66.4345L118.095 66.7126L115.237 70.2778L114.9 69.9997L114.438 69.6331L113.988 69.2538L113.539 68.8871L113.077 68.5079L112.628 68.1286L112.179 67.7493L111.729 67.3827L110.83 66.6241L110.381 66.2448L109.932 65.8655L109.033 65.107L108.584 64.7151L108.197 64.3864L111.13 60.8717ZM100.92 51.8575L101.032 51.9586L101.457 52.3505L101.893 52.7425L102.318 53.1344L102.755 53.5263L103.192 53.9182L103.616 54.2975L104.053 54.6894L104.49 55.0813L104.927 55.4606L105.363 55.8526L105.8 56.2445L106.237 56.6238L106.674 57.003L107.111 57.395L107.548 57.7742L107.698 57.9007L104.727 61.39L104.577 61.2636L104.14 60.8717L103.691 60.4798L103.254 60.0878L102.805 59.7086L102.368 59.3166L101.931 58.9247L101.494 58.5328L101.045 58.1409L100.608 57.749L100.171 57.357L99.734 56.9651L99.2972 56.5605L98.8603 56.1686L98.4234 55.7767L97.9865 55.3848L97.8742 55.271L100.92 51.8575ZM90.9842 42.5145L91.2588 42.78L91.6707 43.1846L92.0951 43.5892L92.507 43.9937L92.9314 44.3983L93.3557 44.8029L93.7801 45.2074L94.2045 45.5993L94.6164 46.0039L95.0408 46.4085L95.4652 46.813L95.8896 47.205L96.314 47.6095L96.7384 48.0015L97.1752 48.406L97.5746 48.7853L94.4916 52.1609L94.0922 51.7816L93.6678 51.3897L93.2309 50.9851L92.8065 50.5806L92.3697 50.176L91.9453 49.7714L91.5209 49.3669L91.0965 48.9623L90.6596 48.5577L90.2353 48.1405L89.8109 47.736L89.3865 47.3314L88.9621 46.9142L88.5377 46.5096L88.1133 46.1051L87.8387 45.8396L90.9842 42.5145ZM151.422 126.904C150.635 127.549 149.674 127.372 148.788 127.385C145.905 127.397 143.046 127.081 140.176 127.094C139.951 127.094 139.289 127.069 139.165 127.233L137.117 132.1C137.055 132.505 137.504 132.771 137.667 133.061C140.25 137.537 137.479 143.631 132.499 144.25L129.291 160.534C128.992 161.823 127.918 162.544 126.845 162.506C124.586 161.191 121.141 160.547 119.031 159.143C118.707 158.916 118.382 158.271 118.332 157.828C118.182 156.653 118.919 155.768 119.53 154.819C121.378 151.987 123.5 149.206 125.409 146.412C126.333 145.072 127.232 143.706 128.106 142.354C124.81 138.144 128.218 130.722 133.473 130.786L135.033 127.081C134.858 126.968 134.671 126.955 134.471 126.942C127.868 126.335 120.666 126.968 114.001 126.462C112.59 126.361 112.378 126.31 111.305 125.337C106.262 120.773 101.644 115.273 96.651 110.595L96.2266 110.342L92.5444 119.091C94.7288 123.895 98.0864 127.878 102.056 130.811C107.66 134.945 114.375 137.271 121.378 137.512C122.788 137.562 124.735 136.854 125.347 138.637C125.734 139.762 125.135 141.203 124.099 141.759C123.138 142.29 118.232 141.924 117.009 141.772C106.1 140.394 93.9798 133.074 89.1743 122.012C88.7249 120.988 88.1757 119.812 88.6001 118.56C89.7734 115.008 91.9078 111.265 93.181 107.688L93.2309 107.245L85.3548 99.3181C84.3812 97.9147 85.2799 95.7149 86.9775 95.4747L124.873 96.562C134.122 105.323 143.021 114.59 152.096 123.605C152.658 124.755 152.508 125.994 151.422 126.904ZM159.872 102.39L159.66 102.251L159.161 101.935L158.661 101.619L158.162 101.316L157.675 101L157.176 100.683L156.677 100.367L156.19 100.051L155.691 99.7353L155.204 99.4065L154.705 99.0905L154.218 98.7744L153.718 98.4584L153.232 98.1296L152.732 97.8136L152.246 97.4849L152.158 97.4343L154.642 93.5783L154.717 93.6289L155.204 93.9449L155.691 94.2736L156.177 94.5897L157.638 95.5379L158.125 95.8413L158.611 96.1574L159.111 96.4734L159.597 96.7895L160.084 97.1056L160.571 97.409L161.07 97.7251L161.557 98.0285L162.044 98.3446L162.269 98.471L159.872 102.39ZM171.63 109.508L171.206 109.255L170.694 108.952L170.182 108.661L169.683 108.358L169.171 108.067L168.672 107.763L168.173 107.46L167.661 107.157L167.162 106.866L166.662 106.562L166.151 106.259L165.651 105.955L165.152 105.639L164.653 105.336L164.141 105.033L163.766 104.805L166.113 100.86L166.5 101.101L166.987 101.404L167.486 101.695L168.485 102.302L168.971 102.605L169.471 102.896L169.97 103.199L170.469 103.503L170.969 103.794L171.468 104.097L171.967 104.388L172.466 104.691L172.978 104.982L173.477 105.273L173.902 105.526L171.63 109.508ZM93.7676 100.152L92.7566 100.317L108.084 115.652L114.338 121.911L130.165 122.239C130.252 122.05 129.503 121.632 129.341 121.519C125.946 119.154 122.426 116.929 119.069 114.515C118.544 114.135 117.408 113.402 117.059 112.934C116.198 111.809 117.084 109.571 118.457 109.217C119.343 108.99 119.967 109.508 120.666 109.951C126.982 113.882 132.824 118.927 139.277 122.581C140.887 122.366 142.834 122.909 144.394 122.682C144.532 122.656 144.569 122.833 144.657 122.467L123.05 100.949L93.7676 100.152ZM133.485 135.362C130.627 134.528 129.678 139.787 132.499 139.749C134.796 139.711 135.482 135.957 133.485 135.362ZM123.5 156.071L125.934 157.12C126.321 155.439 126.683 153.745 126.982 152.051C127.045 151.671 127.232 151.039 127.057 150.711L123.5 156.071Z" fill="#272727"/>
</svg>
