<svg width="323" height="295" viewBox="0 0 323 295" fill="none" xmlns="http://www.w3.org/2000/svg">
<rect y="46.6864" width="266.266" height="79.7295" rx="37.6083" transform="rotate(-10.0983 0 46.6864)" fill="#F56F22"/>
<path d="M32.9462 99.8555L26.658 64.5478L38.1745 62.4968C41.9975 61.8159 45.45 61.9834 48.5321 62.9992C51.6142 64.0149 54.1656 65.7119 56.1865 68.0902C58.2073 70.4685 59.5216 73.3638 60.1293 76.7761C60.737 80.1883 60.5059 83.3751 59.436 86.3365C58.3605 89.2662 56.5519 91.7397 54.01 93.7571C51.4681 95.7745 48.2856 97.1236 44.4626 97.8045L32.9462 99.8555ZM39.1526 92.1492L43.5127 91.3727C45.8192 90.9619 47.7281 90.1493 49.2395 88.9348C50.7452 87.6887 51.8071 86.1468 52.4251 84.309C53.0691 82.4341 53.1885 80.3592 52.7834 78.0843C52.3726 75.7779 51.5442 73.8718 50.2981 72.3661C49.0836 70.8547 47.5575 69.79 45.7198 69.172C43.882 68.5539 41.81 68.4503 39.5035 68.8611L35.1434 69.6376L39.1526 92.1492ZM80.026 92.0575C77.2772 92.5471 74.7848 92.3716 72.5489 91.5311C70.3074 90.659 68.4508 89.2946 66.9792 87.4379C65.5076 85.5811 64.5496 83.4047 64.105 80.9087C63.6436 78.3179 63.8016 75.9102 64.5789 73.6855C65.3878 71.4552 66.6676 69.5811 68.4183 68.0632C70.169 66.5453 72.2765 65.5669 74.741 65.128C76.7947 64.7623 78.6705 64.7705 80.3684 65.1526C82.0607 65.5032 83.5481 66.1673 84.8305 67.145C86.1445 68.1171 87.2238 69.3266 88.0682 70.7734C88.907 72.1887 89.4868 73.7968 89.8075 75.5978C89.8975 76.1033 89.956 76.6144 89.9828 77.1312C90.0356 77.6108 90.0298 78.0356 89.9653 78.4056L70.5816 81.8578L69.6532 76.6446L85.0085 73.9098L82.0825 76.9735C82.1565 75.5587 81.9269 74.3609 81.3936 73.3801C80.8548 72.3678 80.0895 71.6402 79.098 71.1975C78.1323 70.7175 77.0176 70.5901 75.7538 70.8151C74.5216 71.0346 73.5166 71.5233 72.7389 72.2811C71.9611 73.039 71.4552 74.0418 71.221 75.2896C70.9869 76.5374 71.0663 77.9902 71.4594 79.6478C71.5918 81.1237 71.9935 82.3724 72.6644 83.3938C73.3352 84.4152 74.2167 85.1547 75.3087 85.6121C76.395 86.038 77.6333 86.1272 79.0235 85.8796C80.2873 85.6545 81.3165 85.2104 82.1112 84.5473C82.9374 83.8786 83.5245 83.0569 83.8724 82.0822L90.0407 83.7708C89.7602 85.1246 89.1515 86.3739 88.2145 87.5187C87.3091 88.6579 86.1617 89.6283 84.7724 90.4299C83.3774 91.1999 81.7953 91.7424 80.026 92.0575ZM106.676 87.3112C103.833 87.8176 101.234 87.5958 98.8811 86.6459C96.5539 85.6586 94.8085 84.0951 93.6451 81.9553L98.4194 78.5624C99.3305 79.8345 100.425 80.7641 101.703 81.3514C102.981 81.9388 104.315 82.1086 105.706 81.861C106.717 81.681 107.454 81.3377 107.918 80.8313C108.382 80.3249 108.549 79.7084 108.42 78.9817C108.352 78.6026 108.201 78.3035 107.967 78.0845C107.727 77.8339 107.397 77.6318 106.979 77.4781C106.56 77.3245 106.052 77.2193 105.456 77.1626L100.829 76.7154C98.6048 76.4921 96.8061 75.8182 95.4323 74.6938C94.0529 73.5378 93.2 72.0435 92.8737 70.211C92.5867 68.5996 92.747 67.1205 93.3547 65.7736C93.9623 64.4266 94.9496 63.2892 96.3164 62.3612C97.6776 61.4017 99.3218 60.7503 101.249 60.407C103.777 59.9569 106.095 60.1633 108.205 61.0263C110.34 61.8521 111.994 63.2688 113.167 65.2766L108.345 68.678C107.775 67.6712 106.928 66.942 105.804 66.4901C104.706 66.0011 103.526 65.8691 102.262 66.0942C101.346 66.2573 100.653 66.5763 100.183 67.0511C99.7452 67.5203 99.5853 68.0866 99.7034 68.7501C99.7653 69.0977 99.9164 69.3968 100.157 69.6474C100.397 69.8979 100.742 70.0973 101.192 70.2453C101.674 70.3877 102.248 70.4974 102.913 70.5744L107.256 71.0723C109.517 71.3216 111.331 71.9926 112.7 73.0854C114.062 74.1467 114.909 75.6094 115.241 77.4735C115.528 79.0848 115.352 80.5668 114.713 81.9193C114.105 83.2663 113.121 84.4195 111.76 85.3791C110.393 86.307 108.698 86.9511 106.676 87.3112ZM133.626 82.5115C131.035 82.973 128.593 82.8048 126.3 82.0072C124.032 81.1723 122.099 79.8378 120.501 78.0035C118.935 76.1637 117.924 73.9641 117.468 71.4049C117.012 68.8457 117.205 66.4481 118.045 64.2122C118.88 61.9447 120.236 60.0408 122.113 58.5004C123.99 56.9599 126.224 55.959 128.815 55.4976C130.742 55.1544 132.587 55.1682 134.348 55.5391C136.109 55.91 137.681 56.5917 139.064 57.5841C140.441 58.5449 141.526 59.786 142.318 61.3073L136.63 65.0586C135.957 63.8419 135.016 62.9501 133.806 62.3832C132.629 61.8106 131.345 61.6481 129.955 61.8957C128.722 62.1151 127.67 62.6122 126.797 63.387C125.956 64.1561 125.347 65.1284 124.97 66.3039C124.624 67.4738 124.575 68.7539 124.823 70.144C125.07 71.5342 125.558 72.7186 126.287 73.6972C127.047 74.6702 127.954 75.3724 129.009 75.8039C130.095 76.2297 131.254 76.333 132.487 76.1135C133.908 75.8603 135.073 75.2617 135.981 74.3177C136.888 73.3737 137.448 72.2147 137.66 70.8405L144.302 72.4446C144.098 74.0456 143.518 75.5505 142.563 76.9593C141.608 78.3681 140.371 79.5664 138.852 80.5541C137.327 81.5102 135.585 82.1627 133.626 82.5115ZM159.186 77.9594C157.101 78.3307 155.237 78.2063 153.595 77.5861C151.978 76.9287 150.647 75.8618 149.602 74.3855C148.557 72.9092 147.843 71.0968 147.46 68.9484L144.666 53.2613L151.775 51.9953L154.468 67.1136C154.642 68.093 154.987 68.9281 155.501 69.6189C156.041 70.2724 156.711 70.7399 157.511 71.0212C158.311 71.3025 159.169 71.3616 160.085 71.1984C161.033 71.0296 161.818 70.6779 162.44 70.1434C163.093 69.6032 163.545 68.936 163.794 68.1418C164.07 67.3104 164.121 66.4049 163.946 65.4255L161.254 50.3072L168.363 49.0411L172.971 74.9176L166.336 76.0992L165.425 70.9808L166.006 72.0507C165.682 73.7058 164.908 75.0335 163.684 76.0337C162.487 76.9967 160.987 77.6386 159.186 77.9594ZM192.771 71.9782C191.001 72.2933 189.302 72.2699 187.673 71.9081C186.07 71.5091 184.697 70.7593 183.556 69.6586L183.958 68.0713L184.802 72.8106L178.167 73.9922L171.778 38.1159L178.887 36.8498L181.545 51.7785L180.202 50.5509C180.824 49.1035 181.8 47.9029 183.13 46.949C184.486 45.9578 186.111 45.2934 188.007 44.9558C190.471 44.5169 192.806 44.7205 195.01 45.5666C197.214 46.4127 199.084 47.7586 200.619 49.604C202.148 51.4179 203.137 53.5887 203.588 56.1163C204.032 58.6123 203.853 60.9913 203.049 63.2532C202.278 65.5094 201.004 67.4151 199.227 68.9702C197.45 70.5254 195.298 71.528 192.771 71.9782ZM190.778 65.7321C192.105 65.4957 193.221 64.9874 194.125 64.207C195.029 63.4266 195.67 62.4487 196.047 61.2732C196.424 60.0976 196.489 58.8148 196.242 57.4246C195.994 56.0344 195.493 54.8686 194.739 53.9273C193.979 52.9543 193.04 52.2577 191.922 51.8375C190.798 51.3856 189.573 51.2779 188.246 51.5142C186.982 51.7393 185.898 52.242 184.994 53.0224C184.121 53.7971 183.496 54.7723 183.119 55.9478C182.773 57.1177 182.724 58.3977 182.972 59.7879C183.219 61.1781 183.707 62.3625 184.436 63.3411C185.196 64.314 186.119 65.0134 187.205 65.4393C188.323 65.8596 189.514 65.9571 190.778 65.7321ZM210.055 68.313L205.447 42.4366L212.082 41.2549L213.188 47.4634L212.553 46.6473C212.734 44.3659 213.404 42.7308 214.564 41.7418C215.751 40.7156 217.244 40.0421 219.045 39.7213L220.562 39.4513L221.659 45.6123L219.432 46.009C217.694 46.3185 216.384 47.106 215.501 48.3716C214.612 49.6055 214.34 51.1862 214.683 53.1135L217.164 67.047L210.055 68.313ZM236.447 64.1995C234.583 64.5315 232.919 64.5183 231.453 64.1599C229.988 63.8016 228.793 63.1342 227.869 62.1578C226.94 61.1498 226.338 59.8717 226.062 58.3235C225.803 56.8702 225.907 55.5315 226.373 54.3075C226.834 53.0519 227.677 51.924 228.9 50.9237C230.155 49.9178 231.782 49.074 233.779 48.3923L241.466 45.7032L242.394 50.9164L235.97 53.2829C234.993 53.6525 234.278 54.1221 233.825 54.6917C233.367 55.2297 233.214 55.9252 233.366 56.7783C233.506 57.5682 233.916 58.1308 234.595 58.4662C235.274 58.8017 236.056 58.8906 236.941 58.733C238.11 58.5248 239.092 58.0892 239.886 57.4261C240.681 56.7631 241.239 55.9628 241.561 55.0253C241.909 54.0506 241.99 53.0419 241.805 51.9993L240.606 45.2695C240.432 44.2901 239.89 43.5389 238.982 43.0161C238.106 42.4876 237.004 42.3416 235.677 42.5779C234.413 42.803 233.354 43.3503 232.498 44.2198C231.674 45.0837 231.142 46.1238 230.902 47.34L224.734 45.6515C224.981 44.108 225.564 42.7165 226.484 41.477C227.404 40.2374 228.588 39.1954 230.035 38.3509C231.482 37.5065 233.121 36.9211 234.954 36.5947C237.134 36.2065 239.132 36.2582 240.947 36.7498C242.762 37.2415 244.254 38.1166 245.424 39.3752C246.619 40.5966 247.383 42.1393 247.715 44.0034L250.754 61.0649L244.119 62.2465L243.376 58.076L244.937 57.5046C244.381 58.7771 243.712 59.8741 242.931 60.7955C242.144 61.6854 241.213 62.4054 240.138 62.9555C239.068 63.5372 237.838 63.9519 236.447 64.1995Z" fill="white"/>
<rect x="69.3913" y="94.7198" width="257.706" height="77.1662" rx="36.3992" transform="rotate(10.2306 69.3913 94.7198)" fill="#622C0E"/>
<path d="M106.951 160.735C104.506 160.294 102.308 159.44 100.359 158.173C98.4407 156.911 96.8454 155.345 95.5733 153.474C94.3013 151.603 93.4151 149.518 92.9149 147.218C92.4452 144.924 92.4393 142.509 92.8971 139.972C93.355 137.435 94.205 135.173 95.447 133.188C96.6946 131.172 98.2385 129.526 100.079 128.248C101.925 126.94 103.964 126.046 106.197 125.565C108.466 125.059 110.839 125.03 113.314 125.477C115.79 125.923 117.932 126.736 119.739 127.914C121.577 129.098 123.06 130.502 124.187 132.126C125.314 133.75 126.017 135.454 126.294 137.24L119.466 139.133C119.183 137.377 118.405 135.832 117.131 134.498C115.893 133.138 114.234 132.271 112.156 131.896C110.139 131.531 108.28 131.685 106.581 132.357C104.881 133.029 103.452 134.128 102.293 135.655C101.17 137.156 100.407 139.023 100.004 141.254C99.6012 143.486 99.6608 145.516 100.183 147.346C100.735 149.182 101.69 150.712 103.047 151.935C104.405 153.158 106.092 153.952 108.109 154.316C110.188 154.691 112.042 154.474 113.672 153.663C115.338 152.828 116.61 151.637 117.489 150.091L123.224 154.251C122.34 155.827 121.086 157.179 119.462 158.306C117.838 159.434 115.958 160.231 113.823 160.697C111.717 161.169 109.427 161.182 106.951 160.735ZM137.611 166.269C135.135 165.822 132.975 164.848 131.131 163.348C129.318 161.853 127.976 160.017 127.107 157.84C126.273 155.638 126.083 153.283 126.535 150.777C126.993 148.24 127.994 146.101 129.54 144.36C131.115 142.624 133.014 141.373 135.235 140.606C137.488 139.845 139.852 139.687 142.327 140.134C144.803 140.581 146.948 141.552 148.761 143.047C150.575 144.542 151.901 146.375 152.74 148.547C153.609 150.724 153.815 153.081 153.357 155.618C152.905 158.124 151.888 160.261 150.307 162.027C148.762 163.768 146.878 165.022 144.657 165.789C142.435 166.556 140.087 166.716 137.611 166.269ZM138.728 160.079C139.981 160.305 141.119 160.211 142.14 159.795C143.193 159.386 144.073 158.708 144.78 157.763C145.518 156.823 146.008 155.68 146.251 154.335C146.493 152.99 146.431 151.764 146.062 150.656C145.73 149.523 145.143 148.58 144.3 147.829C143.494 147.052 142.464 146.55 141.21 146.324C139.957 146.098 138.802 146.205 137.744 146.645C136.691 147.055 135.796 147.73 135.058 148.67C134.357 149.585 133.885 150.715 133.642 152.06C133.399 153.404 133.444 154.643 133.776 155.777C134.138 156.915 134.741 157.86 135.584 158.612C136.427 159.364 137.475 159.853 138.728 160.079ZM155.15 168.866L159.668 143.832L166.087 144.99L165.193 149.942L165.025 148.776C165.876 147.383 167.007 146.451 168.418 145.979C169.865 145.483 171.459 145.392 173.201 145.706C175.097 146.048 176.676 146.744 177.938 147.792C179.231 148.846 180.146 150.163 180.681 151.743C181.222 153.293 181.322 155.015 180.98 156.91L178.075 173.004L171.197 171.762L173.837 157.136C174.014 156.158 173.967 155.282 173.696 154.507C173.456 153.738 173.021 153.091 172.389 152.567C171.789 152.048 171.03 151.706 170.113 151.54C169.226 151.38 168.396 151.436 167.621 151.706C166.846 151.977 166.197 152.427 165.673 153.059C165.179 153.696 164.844 154.503 164.667 155.481L162.027 170.107L155.15 168.866ZM194.557 176.546C191.897 176.066 189.694 175.069 187.948 173.555C186.207 172.009 184.98 170.147 184.269 167.967C183.558 165.787 183.42 163.49 183.856 161.075C184.308 158.568 185.261 156.436 186.715 154.679C188.199 152.926 189.99 151.656 192.09 150.867C194.189 150.078 196.431 149.899 198.815 150.329C200.802 150.688 202.501 151.326 203.914 152.244C205.332 153.131 206.458 154.234 207.294 155.552C208.159 156.876 208.732 158.337 209.012 159.934C209.297 161.5 209.283 163.155 208.968 164.897C208.88 165.386 208.761 165.87 208.612 166.348C208.499 166.801 208.351 167.184 208.168 167.498L189.415 164.114L190.325 159.07L205.181 161.752L201.495 163.548C202.038 162.289 202.232 161.125 202.078 160.055C201.929 158.955 201.479 158.038 200.728 157.303C200.013 156.542 199.045 156.052 197.822 155.831C196.63 155.616 195.553 155.722 194.593 156.148C193.632 156.574 192.836 157.314 192.204 158.368C191.572 159.422 191.155 160.767 190.954 162.403C190.578 163.787 190.523 165.056 190.789 166.208C191.054 167.361 191.605 168.328 192.443 169.111C193.285 169.862 194.379 170.36 195.724 170.602C196.947 170.823 198.03 170.766 198.974 170.432C199.949 170.102 200.758 169.554 201.402 168.787L206.432 172.393C205.722 173.527 204.75 174.457 203.514 175.18C202.31 175.91 200.942 176.405 199.412 176.665C197.887 176.895 196.268 176.855 194.557 176.546ZM222.815 181.647C220.309 181.194 218.149 180.22 216.336 178.725C214.559 177.205 213.253 175.344 212.42 173.142C211.617 170.946 211.439 168.61 211.885 166.134C212.332 163.658 213.313 161.546 214.828 159.8C216.348 158.023 218.219 156.751 220.44 155.984C222.662 155.217 225.026 155.06 227.532 155.512C229.397 155.848 231.066 156.481 232.539 157.41C234.013 158.339 235.211 159.486 236.132 160.852C237.059 162.187 237.626 163.678 237.834 165.325L231.41 166.817C231.208 165.486 230.654 164.36 229.747 163.439C228.871 162.524 227.76 161.944 226.415 161.702C225.223 161.487 224.101 161.584 223.048 161.994C222.026 162.409 221.147 163.087 220.409 164.026C219.702 164.972 219.227 166.117 218.984 167.462C218.741 168.807 218.786 170.046 219.118 171.179C219.481 172.318 220.068 173.26 220.88 174.006C221.723 174.758 222.74 175.242 223.933 175.457C225.308 175.705 226.566 175.553 227.707 175.002C228.849 174.45 229.746 173.587 230.4 172.41L235.889 176.1C235.166 177.484 234.134 178.655 232.793 179.613C231.453 180.57 229.927 181.241 228.216 181.627C226.511 181.982 224.711 181.989 222.815 181.647ZM250.665 186.389C247.639 185.843 245.432 184.608 244.043 182.684C242.69 180.736 242.279 178.294 242.808 175.36L244.621 165.319L240.402 164.558L241.478 158.597L241.707 158.638C242.991 158.87 244.027 158.726 244.815 158.205C245.634 157.69 246.16 156.791 246.391 155.507L246.722 153.673L253.6 154.914L252.574 160.6L258.443 161.659L257.367 167.619L251.498 166.56L249.769 176.143C249.614 176.999 249.637 177.745 249.838 178.381C250.044 178.986 250.444 179.484 251.036 179.875C251.628 180.266 252.398 180.547 253.346 180.718C253.56 180.757 253.807 180.785 254.088 180.805C254.368 180.824 254.664 180.845 254.975 180.87L253.924 186.693C253.455 186.671 252.924 186.639 252.332 186.595C251.741 186.551 251.185 186.483 250.665 186.389ZM269.914 190.147C267.255 189.667 265.052 188.67 263.305 187.155C261.564 185.61 260.338 183.747 259.626 181.567C258.915 179.387 258.777 177.09 259.213 174.675C259.666 172.169 260.619 170.037 262.072 168.279C263.556 166.527 265.348 165.256 267.447 164.468C269.546 163.679 271.788 163.499 274.172 163.93C276.159 164.288 277.859 164.926 279.271 165.844C280.689 166.731 281.816 167.834 282.651 169.153C283.517 170.477 284.089 171.937 284.369 173.534C284.655 175.101 284.64 176.755 284.326 178.498C284.237 178.987 284.119 179.47 283.969 179.948C283.856 180.401 283.708 180.785 283.525 181.099L264.772 177.714L265.682 172.671L280.538 175.352L276.852 177.149C277.395 175.889 277.589 174.725 277.435 173.656C277.287 172.556 276.837 171.638 276.086 170.903C275.371 170.143 274.402 169.652 273.179 169.432C271.987 169.216 270.911 169.322 269.95 169.748C268.989 170.175 268.193 170.915 267.561 171.968C266.929 173.022 266.512 174.367 266.312 176.004C265.936 177.388 265.88 178.656 266.146 179.809C266.411 180.961 266.963 181.929 267.8 182.711C268.643 183.463 269.736 183.96 271.081 184.203C272.304 184.424 273.387 184.367 274.332 184.032C275.306 183.703 276.115 183.155 276.759 182.387L281.789 185.993C281.08 187.128 280.107 188.057 278.872 188.781C277.667 189.51 276.299 190.005 274.769 190.266C273.244 190.495 271.626 190.456 269.914 190.147Z" fill="white"/>
<rect x="38.65" y="222.204" width="243.509" height="72.9151" rx="34.3939" transform="rotate(-7.73267 38.65 222.204)" fill="#F9A97A"/>
<path d="M75.9595 270.881L71.5465 238.381L84.0229 236.687C86.2623 236.383 88.2932 236.507 90.1157 237.06C91.9673 237.608 93.4922 238.586 94.6903 239.993C95.8884 241.4 96.6414 243.238 96.9495 245.506C97.2496 247.716 96.9953 249.661 96.1867 251.341C95.4072 253.016 94.2003 254.38 92.5659 255.431C90.9567 256.449 89.0469 257.109 86.8366 257.409L81.1219 258.185L82.7212 269.963L75.9595 270.881ZM80.3222 252.295L86.0806 251.514C87.0403 251.383 87.8435 251.082 88.4901 250.609C89.1368 250.136 89.6037 249.539 89.891 248.819C90.2073 248.095 90.3062 247.297 90.1877 246.424C90.0653 245.523 89.7551 244.765 89.2571 244.151C88.7882 243.534 88.1791 243.083 87.4298 242.8C86.6805 242.517 85.826 242.44 84.8662 242.571L79.1079 243.353L80.3222 252.295ZM109.933 266.801C108.217 267.034 106.696 266.959 105.37 266.577C104.045 266.194 102.978 265.539 102.171 264.612C101.36 263.656 100.858 262.465 100.664 261.04C100.483 259.702 100.628 258.483 101.101 257.382C101.569 256.252 102.381 255.253 103.537 254.386C104.722 253.514 106.24 252.804 108.091 252.257L115.216 250.09L115.868 254.888L109.908 256.808C109.001 257.109 108.33 257.511 107.895 258.015C107.456 258.489 107.29 259.119 107.397 259.904C107.495 260.631 107.849 261.161 108.456 261.493C109.064 261.825 109.775 261.936 110.59 261.825C111.666 261.679 112.579 261.318 113.33 260.742C114.082 260.166 114.622 259.456 114.952 258.611C115.306 257.734 115.419 256.815 115.288 255.856L114.447 249.661C114.325 248.759 113.858 248.053 113.048 247.541C112.268 247.025 111.266 246.85 110.045 247.016C108.882 247.173 107.893 247.634 107.078 248.396C106.292 249.154 105.767 250.084 105.502 251.187L99.9295 249.411C100.213 248.01 100.799 246.76 101.686 245.662C102.574 244.565 103.695 243.657 105.049 242.94C106.403 242.223 107.923 241.75 109.61 241.521C111.616 241.249 113.44 241.371 115.08 241.889C116.72 242.407 118.051 243.263 119.072 244.457C120.118 245.618 120.758 247.057 120.991 248.772L123.123 264.477L117.016 265.306L116.494 261.467L117.942 261.004C117.386 262.146 116.734 263.123 115.985 263.936C115.233 264.719 114.355 265.342 113.351 265.804C112.352 266.295 111.212 266.628 109.933 266.801ZM127.922 263.825L124.688 240.007L130.795 239.178L131.571 244.892L131.022 244.123C131.273 242.045 131.948 240.576 133.045 239.716C134.168 238.823 135.558 238.264 137.216 238.039L138.612 237.85L139.382 243.521L137.332 243.799C135.732 244.016 134.505 244.686 133.651 245.809C132.792 246.903 132.483 248.337 132.724 250.112L134.466 262.937L127.922 263.825ZM157.11 260.129C154.231 260.52 151.887 260.053 150.078 258.729C148.295 257.372 147.213 255.297 146.834 252.505L145.537 242.951L141.523 243.496L140.753 237.825L140.971 237.796C142.193 237.63 143.082 237.198 143.639 236.501C144.225 235.799 144.435 234.837 144.269 233.616L144.032 231.871L150.576 230.982L151.31 236.392L156.894 235.634L157.664 241.305L152.08 242.063L153.318 251.18C153.429 251.995 153.667 252.658 154.033 253.171C154.395 253.655 154.899 253.987 155.545 254.166C156.192 254.344 156.966 254.373 157.867 254.25C158.071 254.223 158.301 254.176 158.559 254.112C158.817 254.047 159.089 253.981 159.376 253.912L160.128 259.452C159.7 259.57 159.214 259.695 158.669 259.828C158.124 259.961 157.605 260.062 157.11 260.129ZM163.963 258.932L160.729 235.113L167.272 234.224L170.506 258.043L163.963 258.932ZM160.438 232.975L159.55 226.432L166.093 225.543L166.982 232.087L160.438 232.975ZM187.057 256.329C184.672 256.653 182.447 256.407 180.382 255.591C178.341 254.743 176.626 253.451 175.235 251.714C173.873 249.974 173.032 247.926 172.712 245.57C172.392 243.215 172.659 241.031 173.511 239.02C174.359 236.979 175.67 235.291 177.444 233.954C179.217 232.617 181.296 231.787 183.681 231.463C185.455 231.222 187.139 231.305 188.735 231.71C190.33 232.115 191.741 232.798 192.967 233.757C194.189 234.687 195.133 235.862 195.8 237.282L190.461 240.495C189.892 239.357 189.065 238.507 187.982 237.943C186.927 237.376 185.76 237.179 184.48 237.352C183.346 237.506 182.366 237.921 181.539 238.596C180.742 239.267 180.149 240.132 179.759 241.192C179.399 242.248 179.306 243.416 179.48 244.696C179.654 245.975 180.055 247.076 180.683 247.998C181.341 248.915 182.144 249.591 183.091 250.025C184.068 250.456 185.123 250.594 186.258 250.44C187.566 250.262 188.653 249.759 189.518 248.931C190.383 248.102 190.938 247.064 191.183 245.817L197.192 247.533C196.945 248.988 196.359 250.342 195.433 251.593C194.507 252.844 193.331 253.892 191.906 254.737C190.477 255.554 188.86 256.084 187.057 256.329ZM201.963 253.772L198.729 229.953L205.273 229.065L208.507 252.883L201.963 253.772ZM198.439 227.815L197.55 221.272L204.094 220.383L204.983 226.927L198.439 227.815ZM214.48 260.958L210.061 228.414L216.169 227.585L216.785 232.122L216.04 230.89C216.663 229.591 217.6 228.531 218.851 227.709C220.127 226.855 221.638 226.309 223.383 226.072C225.651 225.764 227.776 226.038 229.759 226.895C231.741 227.751 233.398 229.051 234.731 230.796C236.06 232.511 236.882 234.532 237.198 236.858C237.51 239.156 237.257 241.323 236.437 243.359C235.647 245.392 234.411 247.085 232.729 248.439C231.046 249.793 229.042 250.628 226.715 250.944C225.087 251.165 223.535 251.08 222.06 250.687C220.61 250.262 219.385 249.525 218.383 248.477L219.247 246.982L221.024 260.069L214.48 260.958ZM225.13 245.161C226.352 244.995 227.391 244.573 228.246 243.894C229.102 243.215 229.724 242.346 230.113 241.286C230.503 240.226 230.61 239.056 230.437 237.777C230.263 236.497 229.849 235.413 229.195 234.524C228.537 233.606 227.706 232.934 226.7 232.508C225.69 232.053 224.575 231.908 223.353 232.074C222.19 232.232 221.181 232.65 220.325 233.329C219.499 234.004 218.891 234.872 218.501 235.932C218.141 236.988 218.048 238.155 218.222 239.435C218.396 240.715 218.797 241.815 219.426 242.737C220.083 243.655 220.9 244.329 221.877 244.759C222.883 245.185 223.967 245.319 225.13 245.161ZM254.192 247.213C251.662 247.556 249.391 247.302 247.38 246.45C245.364 245.568 243.719 244.251 242.445 242.499C241.17 240.747 240.377 238.722 240.065 236.425C239.741 234.04 239.976 231.846 240.771 229.842C241.594 227.835 242.834 226.171 244.491 224.85C246.148 223.529 248.111 222.715 250.379 222.407C252.27 222.15 253.983 222.228 255.52 222.641C257.054 223.026 258.388 223.689 259.523 224.63C260.687 225.568 261.627 226.714 262.344 228.068C263.057 229.393 263.526 230.884 263.751 232.542C263.814 233.007 263.848 233.477 263.854 233.95C263.884 234.39 263.862 234.778 263.789 235.114L245.947 237.536L245.296 232.738L259.43 230.819L256.641 233.508C256.762 232.217 256.597 231.114 256.147 230.198C255.693 229.253 255.021 228.559 254.131 228.117C253.267 227.642 252.253 227.483 251.09 227.641C249.956 227.795 249.019 228.204 248.28 228.867C247.541 229.53 247.04 230.428 246.779 231.559C246.518 232.69 246.536 234.021 246.833 235.55C246.898 236.904 247.218 238.06 247.792 239.019C248.367 239.977 249.144 240.686 250.125 241.145C251.101 241.576 252.23 241.704 253.509 241.53C254.672 241.372 255.63 241.005 256.381 240.429C257.161 239.849 257.729 239.121 258.083 238.243L263.656 240.019C263.348 241.245 262.745 242.364 261.846 243.375C260.975 244.381 259.89 245.225 258.59 245.905C257.287 246.556 255.821 246.992 254.192 247.213Z" fill="white"/>
</svg>
