<svg width="323" height="295" viewBox="0 0 323 295" fill="none" xmlns="http://www.w3.org/2000/svg">
<rect y="46.6863" width="266.266" height="79.7295" rx="37.6083" transform="rotate(-10.0983 0 46.6863)" fill="white"/>
<path d="M32.9462 99.8554L26.658 64.5477L38.1745 62.4967C41.9975 61.8158 45.45 61.9833 48.5321 62.999C51.6142 64.0148 54.1656 65.7118 56.1865 68.0901C58.2073 70.4684 59.5216 73.3637 60.1293 76.7759C60.737 80.1882 60.5059 83.375 59.436 86.3363C58.3605 89.2661 56.5519 91.7396 54.01 93.757C51.4681 95.7743 48.2856 97.1235 44.4626 97.8043L32.9462 99.8554ZM39.1526 92.1491L43.5127 91.3725C45.8192 90.9618 47.7281 90.1491 49.2395 88.9346C50.7452 87.6886 51.8071 86.1466 52.4251 84.3089C53.0691 82.434 53.1885 80.3591 52.7834 78.0842C52.3726 75.7778 51.5442 73.8717 50.2981 72.3659C49.0836 70.8546 47.5575 69.7899 45.7198 69.1718C43.882 68.5538 41.81 68.4502 39.5035 68.8609L35.1434 69.6375L39.1526 92.1491ZM80.026 92.0574C77.2772 92.5469 74.7848 92.3715 72.5489 91.531C70.3074 90.6589 68.4508 89.2945 66.9792 87.4377C65.5076 85.581 64.5496 83.4046 64.105 80.9086C63.6436 78.3178 63.8016 75.91 64.5789 73.6854C65.3878 71.4551 66.6676 69.581 68.4183 68.0631C70.169 66.5452 72.2765 65.5668 74.741 65.1279C76.7947 64.7621 78.6705 64.7703 80.3684 65.1525C82.0607 65.503 83.5481 66.1672 84.8305 67.1449C86.1445 68.117 87.2238 69.3264 88.0682 70.7733C88.907 72.1886 89.4868 73.7967 89.8075 75.5976C89.8975 76.1032 89.956 76.6143 89.9828 77.1311C90.0356 77.6106 90.0298 78.0354 89.9653 78.4055L70.5816 81.8576L69.6532 76.6444L85.0085 73.9097L82.0825 76.9734C82.1565 75.5586 81.9269 74.3608 81.3936 73.38C80.8548 72.3677 80.0895 71.6401 79.098 71.1974C78.1323 70.7174 77.0176 70.5899 75.7538 70.815C74.5216 71.0345 73.5166 71.5231 72.7389 72.281C71.9611 73.0389 71.4552 74.0417 71.221 75.2895C70.9869 76.5373 71.0663 77.99 71.4594 79.6477C71.5918 81.1236 71.9935 82.3722 72.6644 83.3937C73.3352 84.4151 74.2167 85.1545 75.3087 85.612C76.395 86.0379 77.6333 86.127 79.0235 85.8794C80.2873 85.6544 81.3165 85.2103 82.1112 84.5472C82.9374 83.8785 83.5245 83.0568 83.8724 82.0821L90.0407 83.7706C89.7602 85.1245 89.1515 86.3738 88.2145 87.5186C87.3091 88.6578 86.1617 89.6282 84.7724 90.4297C83.3774 91.1997 81.7953 91.7423 80.026 92.0574ZM106.676 87.3111C103.833 87.8175 101.234 87.5957 98.8811 86.6457C96.5539 85.6585 94.8085 84.095 93.6451 81.9552L98.4194 78.5623C99.3305 79.8343 100.425 80.764 101.703 81.3513C102.981 81.9386 104.315 82.1085 105.706 81.8609C106.717 81.6808 107.454 81.3376 107.918 80.8312C108.382 80.3248 108.549 79.7083 108.42 78.9816C108.352 78.6024 108.201 78.3034 107.967 78.0844C107.727 77.8338 107.397 77.6317 106.979 77.478C106.56 77.3244 106.052 77.2192 105.456 77.1625L100.829 76.7153C98.6048 76.492 96.8061 75.8181 95.4323 74.6937C94.0529 73.5376 93.2 72.0434 92.8737 70.2109C92.5867 68.5995 92.747 67.1204 93.3547 65.7734C93.9623 64.4265 94.9496 63.2891 96.3164 62.3611C97.6776 61.4015 99.3218 60.7501 101.249 60.4069C103.777 59.9567 106.095 60.1632 108.205 61.0262C110.34 61.8519 111.994 63.2687 113.167 65.2765L108.345 68.6778C107.775 67.6711 106.928 66.9418 105.804 66.49C104.706 66.0009 103.526 65.869 102.262 66.094C101.346 66.2572 100.653 66.5762 100.183 67.051C99.7452 67.5202 99.5853 68.0865 99.7034 68.75C99.7653 69.0976 99.9164 69.3966 100.157 69.6472C100.397 69.8978 100.742 70.0971 101.192 70.2451C101.674 70.3875 102.248 70.4972 102.913 70.5743L107.256 71.0722C109.517 71.3214 111.331 71.9925 112.7 73.0853C114.062 74.1466 114.909 75.6092 115.241 77.4734C115.528 79.0847 115.352 80.5667 114.713 81.9192C114.105 83.2661 113.121 84.4194 111.76 85.3789C110.393 86.3069 108.698 86.951 106.676 87.3111ZM133.626 82.5114C131.035 82.9728 128.593 82.8047 126.3 82.0071C124.032 81.1722 122.099 79.8377 120.501 78.0034C118.935 76.1636 117.924 73.964 117.468 71.4048C117.012 68.8456 117.205 66.448 118.045 64.2121C118.88 61.9446 120.236 60.0406 122.113 58.5002C123.99 56.9598 126.224 55.9589 128.815 55.4975C130.742 55.1543 132.587 55.1681 134.348 55.539C136.109 55.9099 137.681 56.5915 139.064 57.584C140.441 58.5448 141.526 59.7859 142.318 61.3072L136.63 65.0584C135.957 63.8418 135.016 62.95 133.806 62.383C132.629 61.8105 131.345 61.648 129.955 61.8955C128.722 62.115 127.67 62.6121 126.797 63.3868C125.956 64.156 125.347 65.1283 124.97 66.3038C124.624 67.4737 124.575 68.7537 124.823 70.1439C125.07 71.5341 125.558 72.7185 126.287 73.6971C127.047 74.67 127.954 75.3723 129.009 75.8038C130.095 76.2296 131.254 76.3328 132.487 76.1134C133.908 75.8602 135.073 75.2616 135.981 74.3176C136.888 73.3736 137.448 72.2145 137.66 70.8404L144.302 72.4445C144.098 74.0455 143.518 75.5504 142.563 76.9592C141.608 78.368 140.371 79.5663 138.852 80.554C137.327 81.5101 135.585 82.1625 133.626 82.5114ZM159.186 77.9592C157.101 78.3306 155.237 78.2062 153.595 77.586C151.978 76.9286 150.647 75.8617 149.602 74.3854C148.557 72.9091 147.843 71.0967 147.46 68.9482L144.666 53.2612L151.775 51.9951L154.468 67.1135C154.642 68.0929 154.987 68.928 155.501 69.6188C156.041 70.2723 156.711 70.7397 157.511 71.0211C158.311 71.3024 159.169 71.3614 160.085 71.1983C161.033 71.0295 161.818 70.6778 162.44 70.1432C163.093 69.6031 163.545 68.9359 163.794 68.1417C164.07 67.3103 164.121 66.4048 163.946 65.4254L161.254 50.307L168.363 49.041L172.971 74.9175L166.336 76.0991L165.425 70.9807L166.006 72.0506C165.682 73.7057 164.908 75.0333 163.684 76.0336C162.487 76.9966 160.987 77.6385 159.186 77.9592ZM192.771 71.978C191.001 72.2931 189.302 72.2698 187.673 71.908C186.07 71.509 184.697 70.7591 183.556 69.6585L183.958 68.0712L184.802 72.8104L178.167 73.9921L171.778 38.1157L178.887 36.8497L181.545 51.7784L180.202 50.5508C180.824 49.1034 181.8 47.9028 183.13 46.9489C184.486 45.9577 186.111 45.2933 188.007 44.9557C190.471 44.5168 192.806 44.7204 195.01 45.5665C197.214 46.4126 199.084 47.7584 200.619 49.6039C202.148 51.4178 203.137 53.5886 203.588 56.1162C204.032 58.6122 203.853 60.9912 203.049 63.2531C202.278 65.5093 201.004 67.415 199.227 68.9701C197.45 70.5252 195.298 71.5279 192.771 71.978ZM190.778 65.7319C192.105 65.4956 193.221 64.9872 194.125 64.2069C195.029 63.4265 195.67 62.4486 196.047 61.273C196.424 60.0975 196.489 58.8147 196.242 57.4245C195.994 56.0343 195.493 54.8685 194.739 53.9271C193.979 52.9542 193.04 52.2576 191.922 51.8373C190.798 51.3855 189.573 51.2778 188.246 51.5141C186.982 51.7392 185.898 52.2419 184.994 53.0223C184.121 53.797 183.496 54.7721 183.119 55.9477C182.773 57.1176 182.724 58.3976 182.972 59.7878C183.219 61.178 183.707 62.3624 184.436 63.3409C185.196 64.3139 186.119 65.0133 187.205 65.4392C188.323 65.8594 189.514 65.957 190.778 65.7319ZM210.055 68.3129L205.447 42.4364L212.082 41.2548L213.188 47.4632L212.553 46.6472C212.734 44.3658 213.404 42.7306 214.564 41.7417C215.751 40.7154 217.244 40.042 219.045 39.7212L220.562 39.4511L221.659 45.6122L219.432 46.0089C217.694 46.3184 216.384 47.1059 215.501 48.3715C214.612 49.6054 214.34 51.1861 214.683 53.1134L217.164 67.0469L210.055 68.3129ZM236.447 64.1993C234.583 64.5313 232.919 64.5182 231.453 64.1598C229.988 63.8015 228.793 63.1341 227.869 62.1577C226.94 61.1497 226.338 59.8716 226.062 58.3234C225.803 56.87 225.907 55.5313 226.373 54.3073C226.834 53.0518 227.677 51.9238 228.9 50.9236C230.155 49.9177 231.782 49.0739 233.779 48.3922L241.466 45.7031L242.394 50.9163L235.97 53.2827C234.993 53.6524 234.278 54.122 233.825 54.6916C233.367 55.2296 233.214 55.9251 233.366 56.7782C233.506 57.5681 233.916 58.1307 234.595 58.4661C235.274 58.8015 236.056 58.8905 236.941 58.7329C238.11 58.5247 239.092 58.0891 239.886 57.426C240.681 56.7629 241.239 55.9627 241.561 55.0252C241.909 54.0505 241.99 53.0418 241.805 51.9992L240.606 45.2694C240.432 44.2899 239.89 43.5388 238.982 43.016C238.106 42.4875 237.004 42.3415 235.677 42.5778C234.413 42.8029 233.354 43.3502 232.498 44.2197C231.674 45.0836 231.142 46.1237 230.902 47.3399L224.734 45.6513C224.981 44.1079 225.564 42.7164 226.484 41.4768C227.404 40.2373 228.588 39.1952 230.035 38.3508C231.482 37.5064 233.121 36.921 234.954 36.5946C237.134 36.2063 239.132 36.258 240.947 36.7497C242.762 37.2413 244.254 38.1165 245.424 39.3751C246.619 40.5964 247.383 42.1392 247.715 44.0033L250.754 61.0647L244.119 62.2464L243.376 58.0758L244.937 57.5045C244.381 58.777 243.712 59.8739 242.931 60.7954C242.144 61.6853 241.213 62.4053 240.138 62.9554C239.068 63.5371 237.838 63.9518 236.447 64.1993Z" fill="#292929"/>
<rect x="69.3913" y="94.7197" width="257.706" height="77.1662" rx="36.3992" transform="rotate(10.2306 69.3913 94.7197)" fill="#272727"/>
<path d="M106.951 160.735C104.506 160.294 102.308 159.44 100.359 158.173C98.4407 156.911 96.8454 155.345 95.5733 153.474C94.3013 151.603 93.4151 149.518 92.9149 147.218C92.4452 144.924 92.4393 142.508 92.8971 139.971C93.355 137.434 94.205 135.173 95.447 133.188C96.6946 131.172 98.2385 129.526 100.079 128.248C101.925 126.94 103.964 126.046 106.197 125.565C108.466 125.059 110.839 125.03 113.314 125.476C115.79 125.923 117.932 126.736 119.739 127.914C121.577 129.098 123.06 130.502 124.187 132.126C125.314 133.749 126.017 135.454 126.294 137.24L119.466 139.133C119.183 137.377 118.405 135.832 117.131 134.498C115.893 133.138 114.234 132.271 112.156 131.895C110.139 131.531 108.28 131.685 106.581 132.357C104.881 133.029 103.452 134.128 102.293 135.655C101.17 137.156 100.407 139.023 100.004 141.254C99.6012 143.485 99.6608 145.516 100.183 147.346C100.735 149.182 101.69 150.711 103.047 151.935C104.405 153.158 106.092 153.952 108.109 154.316C110.188 154.691 112.042 154.474 113.672 153.663C115.338 152.827 116.61 151.637 117.489 150.091L123.224 154.251C122.34 155.827 121.086 157.179 119.462 158.306C117.838 159.433 115.958 160.23 113.823 160.697C111.717 161.169 109.427 161.182 106.951 160.735ZM137.611 166.269C135.135 165.822 132.975 164.848 131.131 163.348C129.318 161.852 127.976 160.016 127.107 157.839C126.273 155.637 126.083 153.283 126.535 150.777C126.993 148.24 127.994 146.101 129.54 144.36C131.115 142.624 133.014 141.373 135.235 140.606C137.488 139.844 139.852 139.687 142.327 140.134C144.803 140.581 146.948 141.552 148.761 143.047C150.575 144.542 151.901 146.375 152.74 148.547C153.609 150.724 153.815 153.081 153.357 155.618C152.905 158.124 151.888 160.26 150.307 162.027C148.762 163.768 146.878 165.022 144.657 165.789C142.435 166.556 140.087 166.716 137.611 166.269ZM138.728 160.079C139.981 160.305 141.119 160.211 142.14 159.795C143.193 159.386 144.073 158.708 144.78 157.762C145.518 156.822 146.008 155.68 146.251 154.335C146.493 152.99 146.431 151.764 146.062 150.656C145.73 149.523 145.143 148.58 144.3 147.828C143.494 147.052 142.464 146.55 141.21 146.324C139.957 146.098 138.802 146.205 137.744 146.645C136.691 147.055 135.796 147.73 135.058 148.67C134.357 149.585 133.885 150.714 133.642 152.059C133.399 153.404 133.444 154.643 133.776 155.776C134.138 156.915 134.741 157.86 135.584 158.612C136.427 159.364 137.475 159.853 138.728 160.079ZM155.15 168.866L159.668 143.832L166.087 144.99L165.193 149.942L165.025 148.776C165.876 147.383 167.007 146.45 168.418 145.979C169.865 145.483 171.459 145.392 173.201 145.706C175.097 146.048 176.676 146.744 177.938 147.792C179.231 148.846 180.146 150.163 180.681 151.743C181.222 153.293 181.322 155.015 180.98 156.91L178.075 173.004L171.197 171.762L173.837 157.136C174.014 156.158 173.967 155.282 173.696 154.507C173.456 153.738 173.021 153.091 172.389 152.567C171.789 152.048 171.03 151.706 170.113 151.54C169.226 151.38 168.396 151.435 167.621 151.706C166.846 151.976 166.197 152.427 165.673 153.059C165.179 153.695 164.844 154.503 164.667 155.481L162.027 170.107L155.15 168.866ZM194.557 176.546C191.897 176.066 189.694 175.069 187.948 173.554C186.207 172.009 184.98 170.147 184.269 167.967C183.558 165.787 183.42 163.49 183.856 161.075C184.308 158.568 185.261 156.436 186.715 154.679C188.199 152.926 189.99 151.656 192.09 150.867C194.189 150.078 196.431 149.899 198.815 150.329C200.802 150.688 202.501 151.326 203.914 152.243C205.332 153.131 206.458 154.233 207.294 155.552C208.159 156.876 208.732 158.337 209.012 159.934C209.297 161.5 209.283 163.155 208.968 164.897C208.88 165.386 208.761 165.87 208.612 166.348C208.499 166.801 208.351 167.184 208.168 167.498L189.415 164.114L190.325 159.07L205.181 161.751L201.495 163.548C202.038 162.289 202.232 161.125 202.078 160.055C201.929 158.955 201.479 158.038 200.728 157.302C200.013 156.542 199.045 156.052 197.822 155.831C196.63 155.616 195.553 155.721 194.593 156.148C193.632 156.574 192.836 157.314 192.204 158.368C191.572 159.421 191.155 160.767 190.954 162.403C190.578 163.787 190.523 165.056 190.789 166.208C191.054 167.361 191.605 168.328 192.443 169.111C193.285 169.862 194.379 170.36 195.724 170.602C196.947 170.823 198.03 170.766 198.974 170.431C199.949 170.102 200.758 169.554 201.402 168.786L206.432 172.393C205.722 173.527 204.75 174.456 203.514 175.18C202.31 175.91 200.942 176.405 199.412 176.665C197.887 176.895 196.268 176.855 194.557 176.546ZM222.815 181.646C220.309 181.194 218.149 180.22 216.336 178.725C214.559 177.205 213.253 175.344 212.42 173.142C211.617 170.946 211.439 168.609 211.885 166.134C212.332 163.658 213.313 161.546 214.828 159.8C216.348 158.022 218.219 156.75 220.44 155.984C222.662 155.217 225.026 155.059 227.532 155.512C229.397 155.848 231.066 156.481 232.539 157.41C234.013 158.339 235.211 159.486 236.132 160.851C237.059 162.186 237.626 163.678 237.834 165.325L231.41 166.817C231.208 165.486 230.654 164.36 229.747 163.439C228.871 162.524 227.76 161.944 226.415 161.702C225.223 161.486 224.101 161.584 223.048 161.994C222.026 162.409 221.147 163.086 220.409 164.026C219.702 164.972 219.227 166.117 218.984 167.462C218.741 168.807 218.786 170.046 219.118 171.179C219.481 172.318 220.068 173.26 220.88 174.006C221.723 174.758 222.74 175.242 223.933 175.457C225.308 175.705 226.566 175.553 227.707 175.002C228.849 174.45 229.746 173.586 230.4 172.41L235.889 176.1C235.166 177.484 234.134 178.655 232.793 179.612C231.453 180.57 229.927 181.241 228.216 181.627C226.511 181.982 224.711 181.988 222.815 181.646ZM250.665 186.389C247.639 185.843 245.432 184.608 244.043 182.684C242.69 180.736 242.279 178.294 242.808 175.36L244.621 165.319L240.402 164.557L241.478 158.597L241.707 158.638C242.991 158.87 244.027 158.726 244.815 158.205C245.634 157.69 246.16 156.791 246.391 155.507L246.722 153.673L253.6 154.914L252.574 160.599L258.443 161.659L257.367 167.619L251.498 166.56L249.769 176.143C249.614 176.999 249.637 177.744 249.838 178.38C250.044 178.986 250.444 179.484 251.036 179.875C251.628 180.266 252.398 180.547 253.346 180.718C253.56 180.756 253.807 180.785 254.088 180.804C254.368 180.823 254.664 180.845 254.975 180.87L253.924 186.693C253.455 186.671 252.924 186.639 252.332 186.595C251.741 186.551 251.185 186.483 250.665 186.389ZM269.914 190.147C267.255 189.667 265.052 188.67 263.305 187.155C261.564 185.61 260.338 183.747 259.626 181.567C258.915 179.387 258.777 177.09 259.213 174.675C259.666 172.169 260.619 170.037 262.072 168.279C263.556 166.527 265.348 165.256 267.447 164.467C269.546 163.678 271.788 163.499 274.172 163.929C276.159 164.288 277.859 164.926 279.271 165.844C280.689 166.731 281.816 167.834 282.651 169.152C283.517 170.477 284.089 171.937 284.369 173.534C284.655 175.101 284.64 176.755 284.326 178.497C284.237 178.986 284.119 179.47 283.969 179.948C283.856 180.401 283.708 180.785 283.525 181.099L264.772 177.714L265.682 172.671L280.538 175.352L276.852 177.149C277.395 175.889 277.589 174.725 277.435 173.656C277.287 172.556 276.837 171.638 276.086 170.903C275.371 170.143 274.402 169.652 273.179 169.431C271.987 169.216 270.911 169.322 269.95 169.748C268.989 170.174 268.193 170.914 267.561 171.968C266.929 173.022 266.512 174.367 266.312 176.004C265.936 177.388 265.88 178.656 266.146 179.809C266.411 180.961 266.963 181.929 267.8 182.711C268.643 183.463 269.736 183.96 271.081 184.203C272.304 184.423 273.387 184.367 274.332 184.032C275.306 183.703 276.115 183.154 276.759 182.387L281.789 185.993C281.08 187.128 280.107 188.057 278.872 188.781C277.667 189.51 276.299 190.005 274.769 190.266C273.244 190.495 271.626 190.456 269.914 190.147Z" fill="white"/>
<rect x="38.65" y="222.204" width="243.509" height="72.9151" rx="34.3939" transform="rotate(-7.73267 38.65 222.204)" fill="white"/>
<path d="M75.9595 270.881L71.5465 238.381L84.0229 236.687C86.2623 236.383 88.2932 236.507 90.1157 237.06C91.9673 237.608 93.4922 238.586 94.6903 239.993C95.8884 241.4 96.6414 243.238 96.9495 245.506C97.2496 247.716 96.9953 249.661 96.1867 251.341C95.4072 253.016 94.2003 254.38 92.5659 255.431C90.9567 256.449 89.0469 257.109 86.8366 257.409L81.1219 258.185L82.7212 269.963L75.9595 270.881ZM80.3222 252.295L86.0806 251.514C87.0403 251.383 87.8435 251.082 88.4901 250.609C89.1368 250.136 89.6037 249.539 89.891 248.819C90.2073 248.095 90.3062 247.297 90.1877 246.424C90.0653 245.523 89.7551 244.765 89.2571 244.151C88.7882 243.534 88.1791 243.083 87.4298 242.8C86.6805 242.517 85.826 242.44 84.8662 242.571L79.1079 243.353L80.3222 252.295ZM109.933 266.801C108.217 267.034 106.696 266.959 105.37 266.577C104.045 266.194 102.978 265.539 102.171 264.612C101.36 263.656 100.858 262.465 100.664 261.04C100.483 259.702 100.628 258.483 101.101 257.382C101.569 256.252 102.381 255.253 103.537 254.386C104.722 253.514 106.24 252.804 108.091 252.257L115.216 250.09L115.868 254.888L109.908 256.808C109.001 257.109 108.33 257.511 107.895 258.015C107.456 258.489 107.29 259.119 107.397 259.904C107.495 260.631 107.849 261.161 108.456 261.493C109.064 261.825 109.775 261.936 110.59 261.825C111.666 261.679 112.579 261.318 113.33 260.742C114.082 260.166 114.622 259.456 114.952 258.611C115.306 257.734 115.419 256.815 115.288 255.856L114.447 249.661C114.325 248.759 113.858 248.053 113.048 247.541C112.268 247.025 111.266 246.85 110.045 247.016C108.882 247.173 107.893 247.634 107.078 248.396C106.292 249.154 105.767 250.084 105.502 251.187L99.9295 249.411C100.213 248.01 100.799 246.76 101.686 245.662C102.574 244.565 103.695 243.657 105.049 242.94C106.403 242.223 107.923 241.75 109.61 241.521C111.616 241.249 113.44 241.371 115.08 241.889C116.72 242.407 118.051 243.263 119.072 244.457C120.118 245.618 120.758 247.057 120.991 248.772L123.123 264.477L117.016 265.306L116.494 261.467L117.942 261.004C117.386 262.146 116.734 263.123 115.985 263.936C115.233 264.719 114.355 265.342 113.351 265.804C112.352 266.295 111.212 266.628 109.933 266.801ZM127.922 263.825L124.688 240.007L130.795 239.178L131.571 244.892L131.022 244.123C131.273 242.045 131.948 240.576 133.045 239.716C134.168 238.823 135.558 238.264 137.216 238.039L138.612 237.85L139.382 243.521L137.332 243.799C135.732 244.016 134.505 244.686 133.651 245.809C132.792 246.903 132.483 248.337 132.724 250.112L134.466 262.937L127.922 263.825ZM157.11 260.129C154.231 260.52 151.887 260.053 150.078 258.729C148.295 257.372 147.213 255.297 146.834 252.505L145.537 242.951L141.523 243.496L140.753 237.825L140.971 237.796C142.193 237.63 143.082 237.198 143.639 236.501C144.225 235.799 144.435 234.837 144.269 233.616L144.032 231.871L150.576 230.982L151.31 236.392L156.894 235.634L157.664 241.305L152.08 242.063L153.318 251.18C153.429 251.995 153.667 252.658 154.033 253.171C154.395 253.655 154.899 253.987 155.545 254.166C156.192 254.344 156.966 254.373 157.867 254.25C158.071 254.223 158.301 254.176 158.559 254.112C158.817 254.047 159.089 253.981 159.376 253.912L160.128 259.452C159.7 259.57 159.214 259.695 158.669 259.828C158.124 259.961 157.605 260.062 157.11 260.129ZM163.963 258.932L160.729 235.113L167.272 234.224L170.506 258.043L163.963 258.932ZM160.438 232.975L159.55 226.432L166.093 225.543L166.982 232.087L160.438 232.975ZM187.057 256.329C184.672 256.653 182.447 256.407 180.382 255.591C178.341 254.743 176.626 253.451 175.235 251.714C173.873 249.974 173.032 247.926 172.712 245.57C172.392 243.215 172.659 241.031 173.511 239.02C174.359 236.979 175.67 235.291 177.444 233.954C179.217 232.617 181.296 231.787 183.681 231.463C185.455 231.222 187.139 231.305 188.735 231.71C190.33 232.115 191.741 232.798 192.967 233.757C194.189 234.687 195.133 235.862 195.8 237.282L190.461 240.495C189.892 239.357 189.065 238.507 187.982 237.943C186.927 237.376 185.76 237.179 184.48 237.352C183.346 237.506 182.366 237.921 181.539 238.596C180.742 239.267 180.149 240.132 179.759 241.192C179.399 242.248 179.306 243.416 179.48 244.696C179.654 245.975 180.055 247.076 180.683 247.998C181.341 248.915 182.144 249.591 183.091 250.025C184.068 250.456 185.123 250.594 186.258 250.44C187.566 250.262 188.653 249.759 189.518 248.931C190.383 248.102 190.938 247.064 191.183 245.817L197.192 247.533C196.945 248.988 196.359 250.342 195.433 251.593C194.507 252.844 193.331 253.892 191.906 254.737C190.477 255.554 188.86 256.084 187.057 256.329ZM201.963 253.772L198.729 229.953L205.273 229.065L208.507 252.883L201.963 253.772ZM198.439 227.815L197.55 221.272L204.094 220.383L204.983 226.927L198.439 227.815ZM214.48 260.958L210.061 228.414L216.169 227.585L216.785 232.122L216.04 230.89C216.663 229.591 217.6 228.531 218.851 227.709C220.127 226.855 221.638 226.309 223.383 226.072C225.651 225.764 227.776 226.038 229.759 226.895C231.741 227.751 233.398 229.051 234.731 230.796C236.06 232.511 236.882 234.532 237.198 236.858C237.51 239.156 237.257 241.323 236.437 243.359C235.647 245.392 234.411 247.085 232.729 248.439C231.046 249.793 229.042 250.628 226.715 250.944C225.087 251.165 223.535 251.08 222.06 250.687C220.61 250.262 219.385 249.525 218.383 248.477L219.247 246.982L221.024 260.069L214.48 260.958ZM225.13 245.161C226.352 244.995 227.391 244.573 228.246 243.894C229.102 243.215 229.724 242.346 230.113 241.286C230.503 240.226 230.61 239.056 230.437 237.777C230.263 236.497 229.849 235.413 229.195 234.524C228.537 233.606 227.706 232.934 226.7 232.508C225.69 232.053 224.575 231.908 223.353 232.074C222.19 232.232 221.181 232.65 220.325 233.329C219.499 234.004 218.891 234.872 218.501 235.932C218.141 236.988 218.048 238.155 218.222 239.435C218.396 240.715 218.797 241.815 219.426 242.737C220.083 243.655 220.9 244.329 221.877 244.759C222.883 245.185 223.967 245.319 225.13 245.161ZM254.192 247.213C251.662 247.556 249.391 247.302 247.38 246.45C245.364 245.568 243.719 244.251 242.445 242.499C241.17 240.747 240.377 238.722 240.065 236.425C239.741 234.04 239.976 231.846 240.771 229.842C241.594 227.835 242.834 226.171 244.491 224.85C246.148 223.529 248.111 222.715 250.379 222.407C252.27 222.15 253.983 222.228 255.52 222.641C257.054 223.026 258.388 223.689 259.523 224.63C260.687 225.568 261.627 226.714 262.344 228.068C263.057 229.393 263.526 230.884 263.751 232.542C263.814 233.007 263.848 233.477 263.854 233.95C263.884 234.39 263.862 234.778 263.789 235.114L245.947 237.536L245.296 232.738L259.43 230.819L256.641 233.508C256.762 232.217 256.597 231.114 256.147 230.198C255.693 229.253 255.021 228.559 254.131 228.117C253.267 227.642 252.253 227.483 251.09 227.641C249.956 227.795 249.019 228.204 248.28 228.867C247.541 229.53 247.04 230.428 246.779 231.559C246.518 232.69 246.536 234.021 246.833 235.55C246.898 236.904 247.218 238.06 247.792 239.019C248.367 239.977 249.144 240.686 250.125 241.145C251.101 241.576 252.23 241.704 253.509 241.53C254.672 241.372 255.63 241.005 256.381 240.429C257.161 239.849 257.729 239.121 258.083 238.243L263.656 240.019C263.348 241.245 262.745 242.364 261.846 243.375C260.975 244.381 259.89 245.225 258.59 245.905C257.287 246.556 255.821 246.992 254.192 247.213Z" fill="#292929"/>
</svg>
