<svg width="151" height="109" viewBox="0 0 151 109" fill="none" xmlns="http://www.w3.org/2000/svg">
<path d="M29.859 37.8192V58.5508C29.859 65.0387 26.2286 72.6894 14.9295 72.6894C3.63045 72.6894 0 65.0387 0 58.5508V37.8192C0 37.4479 0.300299 37.1475 0.671401 37.1475H9.01142C9.38252 37.1475 9.68282 37.4479 9.68282 37.8192V58.734C9.68526 61.3477 10.9597 64.4329 14.9344 64.4329C18.9091 64.4329 20.1811 61.3477 20.1811 58.734V37.8192C20.1811 37.4479 20.4814 37.1475 20.8525 37.1475H29.1901C29.5636 37.1475 29.8639 37.4479 29.8615 37.8192H29.859Z" fill="#272727"/>
<path d="M68.1459 71.6756C67.7748 71.6756 67.472 71.4851 67.472 71.2457V50.0793C67.472 49.84 67.7723 49.6494 68.1459 49.6494H76.4859C76.857 49.6494 77.1597 49.84 77.1597 50.0793V71.2457C77.1573 71.4851 76.857 71.6756 76.4859 71.6756H68.1459Z" fill="#272727"/>
<path d="M44.825 78.227C44.9129 77.9901 45.14 77.8313 45.3915 77.8313H53.021C53.3579 77.8313 53.6289 78.1049 53.6289 78.4395V78.635C53.6289 78.7034 53.6167 78.7766 53.5923 78.845L42.5984 108.529C42.5105 108.766 42.2835 108.925 42.032 108.925H34.378C34.1266 108.925 33.8995 108.766 33.8116 108.529L22.8153 78.8426C22.7909 78.7766 22.7787 78.7058 22.7787 78.6325V78.4371C22.7787 78.1024 23.0497 77.8337 23.3866 77.8337H31.0162C31.2676 77.8337 31.4947 77.9925 31.5826 78.2295L38.2063 96.0664L44.8275 78.2295L44.825 78.227Z" fill="#272727"/>
<path d="M55.2208 108.317V78.4395C55.2208 78.1024 55.4918 77.8313 55.8288 77.8313H74.0884C74.4229 77.8313 74.6963 78.1024 74.6963 78.4395V84.6417C74.6963 84.9763 74.4253 85.2499 74.0884 85.2499H63.9442V89.6713H72.7041C73.0386 89.6713 73.312 89.9424 73.312 90.2795V96.4816C73.312 96.8163 73.041 97.0874 72.7041 97.0874H63.9442V101.509H74.0884C74.4229 101.509 74.6963 101.78 74.6963 102.117V108.317C74.6963 108.651 74.4253 108.925 74.0884 108.925H55.8288C55.4943 108.925 55.2208 108.654 55.2208 108.317Z" fill="#272727"/>
<path d="M98.8301 77.8313H106.345C106.682 77.8313 106.953 78.1049 106.953 78.4395V108.312C106.953 108.649 106.679 108.92 106.345 108.92H98.5835C98.3662 108.92 98.1612 108.805 98.0562 108.612L88.3123 91.3885V108.314C88.3123 108.651 88.0389 108.923 87.7044 108.923H80.1945C79.8575 108.923 79.5865 108.649 79.5865 108.314V78.4371C79.5865 78.1 79.8575 77.8289 80.1945 77.8289H87.9754C88.1854 77.8289 88.3782 77.9363 88.4881 78.1147L98.2295 93.8117V78.4371C98.2295 78.1 98.5005 77.8289 98.8326 77.8289L98.8301 77.8313Z" fill="#272727"/>
<path d="M133.77 84.6343C133.77 84.969 133.499 85.2426 133.162 85.2426H126.343V108.317C126.343 108.651 126.072 108.925 125.735 108.925H118.225C117.891 108.925 117.617 108.654 117.617 108.317V85.2377H110.798C110.464 85.2377 110.19 84.9665 110.19 84.6319V78.442C110.19 78.1049 110.461 77.8337 110.798 77.8337H133.162C133.491 77.8337 133.765 78.1049 133.765 78.442V84.6368L133.77 84.6343Z" fill="#272727"/>
<path d="M34.1267 71.0503V50.3188C34.1267 43.8308 37.7572 36.1802 49.0562 36.1802C60.3553 36.1802 63.9857 43.8308 63.9857 50.3188V71.0503C63.9857 71.4216 63.6854 71.7221 63.3143 71.7221H54.9743C54.6032 71.7221 54.3029 71.4216 54.3029 71.0503V50.1356C54.3005 47.5218 53.026 44.4366 49.0513 44.4366C45.0767 44.4366 43.8047 47.5218 43.8047 50.1356V71.0503C43.8047 71.4216 43.5044 71.7221 43.1333 71.7221H34.7957C34.4221 71.7221 34.1218 71.4216 34.1243 71.0503H34.1267Z" fill="#272727"/>
<path d="M68.3364 46.9892C67.9653 46.9892 67.6626 46.9012 67.6626 46.7913V37.0497C67.6626 36.9397 67.9629 36.8518 68.3364 36.8518H76.6765C77.0476 36.8518 77.3503 36.9397 77.3503 37.0497V46.7913C77.3479 46.9012 77.0476 46.9892 76.6765 46.9892H68.3364Z" fill="#272727"/>
<path d="M1.46484 108.39V78.5128C1.46484 78.1757 1.73585 77.9045 2.07277 77.9045H20.3324C20.6669 77.9045 20.9403 78.1757 20.9403 78.5128V84.7149C20.9403 85.0496 20.6693 85.3232 20.3324 85.3232H10.1882V89.7445H18.9481C19.2826 89.7445 19.556 90.0157 19.556 90.3528V96.5549C19.556 96.8895 19.285 97.1607 18.9481 97.1607H10.1882V101.582H20.3324C20.6669 101.582 20.9403 101.853 20.9403 102.19V108.39C20.9403 108.725 20.6693 108.998 20.3324 108.998H2.07277C1.73829 108.998 1.46484 108.727 1.46484 108.39Z" fill="#272727"/>
<path fill-rule="evenodd" clip-rule="evenodd" d="M129.285 3.89197H129.261V3.88464C129.153 3.85777 129.046 3.84067 128.933 3.82845L121.572 3.12006L122.144 3.34235C123.389 3.81624 124.014 5.21838 123.538 6.46173L123.494 6.57898V6.59608H123.489C123.423 6.7744 123.364 6.95517 123.313 7.13593C123.11 7.84677 123.015 8.56738 123.015 9.27821C123.015 9.71058 123.052 10.1405 123.12 10.5631H123.135V10.6364C123.286 11.4962 123.579 12.3243 123.999 13.0865H124.036V13.15C124.092 13.2501 124.151 13.3478 124.212 13.4455H124.214V13.4529C124.37 13.6996 124.536 13.939 124.719 14.1661H124.756V14.215C125.112 14.6596 125.523 15.0675 125.977 15.429H126.016V15.4632C126.341 15.7173 126.687 15.9469 127.053 16.1521H127.097V16.1765C127.195 16.2303 127.295 16.2816 127.395 16.3304H127.459V16.3622C127.566 16.4135 127.678 16.4648 127.788 16.5112H127.82V16.5234C127.901 16.5576 127.984 16.5918 128.067 16.6235C128.318 16.7213 128.57 16.8019 128.823 16.8727H129.08V16.9362C129.275 16.9826 129.468 17.0217 129.663 17.0535H129.8V17.073L130.005 17.0999L131.033 6.38357C131.145 5.22082 130.381 4.17044 129.285 3.89197ZM99.2989 22.7084L103.864 10.7829C100.532 8.81654 98.4566 5.04006 98.8522 0.936248L89.2401 0.0104485C88.6469 -0.0457346 88.0829 0.127701 87.6337 0.457471V0.464799H87.6239C87.1112 0.845867 86.7547 1.43457 86.6913 2.11609L86.5545 3.528L86.3836 5.30876L85.6536 12.9032L84.7527 22.2785L83.8518 31.6562L81.4983 56.1471L81.5081 56.174L83.8494 62.1245H83.8518L84.0325 62.5862L98.6446 24.4159L96.7403 24.2302L96.9088 22.4788L99.2989 22.7084ZM89.7382 23.5585L86.2372 23.2189L86.4056 21.4699L89.9067 21.8046L89.7382 23.5585ZM94.9898 24.0641L91.4887 23.727L91.6547 21.9731L94.8384 22.2809H94.8433L95.1558 22.3102L94.9898 24.0641Z" fill="#272727"/>
<path fill-rule="evenodd" clip-rule="evenodd" d="M150.909 17.9523H150.885V17.8766C150.809 17.647 150.699 17.4296 150.557 17.2317H150.523V17.1853C150.384 16.9972 150.213 16.8311 150.018 16.6919H149.984V16.6674C149.835 16.5673 149.674 16.4794 149.5 16.4134L140.481 12.9545C138.45 18.2601 132.505 20.9129 127.205 18.883C121.902 16.8482 119.251 10.9026 121.282 5.59694L112.266 2.1429C112.212 2.12336 112.158 2.10382 112.107 2.08672H111.96V2.04764C111.597 1.96214 111.228 1.96947 110.881 2.05496V2.08672H110.757C110.613 2.13069 110.474 2.18931 110.339 2.26015V2.26748H110.322C109.968 2.45802 109.658 2.74137 109.438 3.09801V3.16885H109.397C109.338 3.27145 109.287 3.37893 109.243 3.4913L108.098 6.4861L85.517 66.3577L86.1933 68.075L86.5863 69.0716H131.848L138.992 50.4066L143.318 39.0918L142.596 38.8158L143.228 37.1718L143.948 37.4479L150.845 19.4326L150.885 19.3276V19.2152H150.919C151.033 18.7926 151.024 18.3554 150.909 17.9523ZM123.518 29.6189L126.802 30.8769L126.172 32.5209L122.888 31.2628L123.518 29.6189ZM118.594 27.7306L121.875 28.9886L121.245 30.6326L117.961 29.3746L118.594 27.7306ZM113.665 25.8399L116.951 27.1004L116.321 28.7468L113.035 27.4864L113.665 25.8399ZM108.738 23.9542L109.077 24.0836H109.079L112.021 25.2122L111.392 26.8561L108.11 25.5981L108.738 23.9542ZM103.811 22.0635L107.097 23.3239L106.467 24.9679L103.181 23.7074L103.811 22.0635ZM128.526 50.7706C128.218 51.0246 127.845 50.9562 127.495 50.9562C126.372 50.9636 125.254 50.839 124.131 50.8487C124.043 50.8487 123.787 50.8365 123.736 50.9L122.94 52.7761C122.913 52.9373 123.086 53.0374 123.154 53.1498C124.163 54.8744 123.079 57.2267 121.133 57.4661L119.88 63.7538C119.766 64.2472 119.341 64.5232 118.923 64.5135C118.042 64.0029 116.697 63.7586 115.872 63.2115C115.742 63.1284 115.618 62.8768 115.598 62.7083C115.542 62.2515 115.825 61.9119 116.067 61.548C116.79 60.4512 117.617 59.3812 118.367 58.2991C118.723 57.7861 119.072 57.2585 119.417 56.7333C118.13 55.1089 119.463 52.2484 121.516 52.2729L122.124 50.8414C122.056 50.7999 121.98 50.795 121.902 50.7877C119.321 50.5532 116.511 50.7974 113.906 50.602C113.357 50.5605 113.271 50.5434 112.854 50.1697C110.886 48.406 109.077 46.2833 107.126 44.4781L106.963 44.3804L105.525 47.7562C106.377 49.6103 107.688 51.1468 109.241 52.2778C111.431 53.8729 114.053 54.7767 116.787 54.8671C117.339 54.8842 118.098 54.613 118.34 55.3019C118.491 55.7367 118.254 56.2912 117.854 56.5086C117.476 56.7113 115.559 56.5672 115.083 56.5086C110.823 55.9785 106.084 53.1547 104.206 48.8848C104.033 48.4891 103.821 48.0372 103.982 47.5535C104.441 46.1807 105.273 44.7394 105.771 43.3569L105.793 43.1859L102.717 40.1275C102.334 39.5828 102.688 38.7401 103.347 38.6424L118.154 39.0625C121.768 42.4457 125.244 46.0194 128.787 49.5004C129.009 49.9425 128.95 50.4188 128.526 50.7706ZM131.101 34.4115L127.818 33.1535L128.445 31.5071L131.731 32.7676L131.101 34.4115ZM136.026 36.2973L132.745 35.0393L133.372 33.3954L136.658 34.6534L136.026 36.2973ZM140.953 38.188L137.671 36.93L138.299 35.2836L141.585 36.544L140.953 38.188ZM106.001 40.4524L105.605 40.5111L111.597 46.4323L114.041 48.8457L120.222 48.9727C120.254 48.8994 119.963 48.7407 119.9 48.6942C118.572 47.7807 117.2 46.9257 115.884 45.9901C115.681 45.846 115.237 45.5651 115.098 45.3843C114.763 44.9446 115.112 44.0848 115.647 43.948C115.994 43.8576 116.238 44.0628 116.509 44.2289C118.98 45.7483 121.257 47.6976 123.782 49.1046C124.412 49.024 125.171 49.2292 125.779 49.1413C125.835 49.1339 125.847 49.2023 125.884 49.0607L117.439 40.7553L106.001 40.4524ZM121.516 54.039C120.403 53.7141 120.032 55.744 121.133 55.7269C122.029 55.7147 122.298 54.2661 121.516 54.039ZM117.617 62.0292L118.567 62.4322C118.718 61.7849 118.86 61.1302 118.975 60.478C119.002 60.329 119.075 60.0872 119.006 59.9626L117.617 62.0292Z" fill="#272727"/>
</svg>
