<svg width="283" height="204" viewBox="0 0 283 204" fill="none" xmlns="http://www.w3.org/2000/svg">
<path d="M55.8838 70.7822V109.583C55.8838 121.726 49.0891 136.045 27.9419 136.045C6.79471 136.045 0 121.726 0 109.583V70.7822C0 70.0872 0.562037 69.5249 1.25659 69.5249H16.8657C17.5602 69.5249 18.1223 70.0872 18.1223 70.7822V109.926C18.1268 114.818 20.5121 120.592 27.9511 120.592C35.3901 120.592 37.7707 114.818 37.7707 109.926V70.7822C37.7707 70.0872 38.3327 69.5249 39.0273 69.5249H54.6318C55.3309 69.5249 55.893 70.0872 55.8884 70.7822H55.8838Z" fill="white"/>
<path d="M127.541 134.147C126.847 134.147 126.28 133.791 126.28 133.343V93.728C126.28 93.2799 126.842 92.9233 127.541 92.9233H143.15C143.845 92.9233 144.411 93.2799 144.411 93.728V133.343C144.407 133.791 143.845 134.147 143.15 134.147H127.541Z" fill="white"/>
<path d="M83.8942 146.409C84.0587 145.966 84.4837 145.668 84.9543 145.668H99.2337C99.8643 145.668 100.372 146.181 100.372 146.807V147.173C100.372 147.301 100.349 147.438 100.303 147.566L79.7269 203.122C79.5625 203.566 79.1375 203.863 78.6668 203.863H64.3418C63.8711 203.863 63.4462 203.566 63.2817 203.122L42.7011 147.561C42.6554 147.438 42.6325 147.305 42.6325 147.168V146.802C42.6325 146.176 43.1397 145.673 43.7703 145.673H58.0497C58.5203 145.673 58.9453 145.97 59.1098 146.414L71.5066 179.797L83.8988 146.414L83.8942 146.409Z" fill="white"/>
<path d="M103.351 202.725V146.807C103.351 146.176 103.858 145.668 104.489 145.668H138.663C139.289 145.668 139.801 146.176 139.801 146.807V158.415C139.801 159.041 139.294 159.553 138.663 159.553H119.677V167.828H136.072C136.698 167.828 137.21 168.336 137.21 168.966V180.574C137.21 181.201 136.703 181.708 136.072 181.708H119.677V189.983H138.663C139.289 189.983 139.801 190.491 139.801 191.121V202.725C139.801 203.351 139.294 203.863 138.663 203.863H104.489C103.863 203.863 103.351 203.356 103.351 202.725Z" fill="white"/>
<path d="M184.97 145.668H199.034C199.665 145.668 200.172 146.18 200.172 146.807V202.715C200.172 203.346 199.66 203.854 199.034 203.854H184.508C184.101 203.854 183.718 203.639 183.521 203.278L165.285 171.042V202.72C165.285 203.351 164.773 203.858 164.147 203.858H150.091C149.461 203.858 148.954 203.346 148.954 202.72V146.802C148.954 146.171 149.461 145.664 150.091 145.664H164.654C165.047 145.664 165.408 145.865 165.614 146.199L183.846 175.577V146.802C183.846 146.171 184.353 145.664 184.974 145.664L184.97 145.668Z" fill="white"/>
<path d="M250.362 158.401C250.362 159.027 249.855 159.539 249.225 159.539H236.462V202.725C236.462 203.351 235.955 203.863 235.324 203.863H221.269C220.643 203.863 220.131 203.355 220.131 202.725V159.53H207.369C206.743 159.53 206.231 159.023 206.231 158.396V146.811C206.231 146.18 206.738 145.673 207.369 145.673H249.225C249.841 145.673 250.353 146.18 250.353 146.811V158.405L250.362 158.401Z" fill="white"/>
<path d="M63.8712 132.977V94.176C63.8712 82.0333 70.6659 67.7144 91.8131 67.7144C112.96 67.7144 119.755 82.0333 119.755 94.176V132.977C119.755 133.672 119.193 134.234 118.498 134.234H102.889C102.195 134.234 101.633 133.672 101.633 132.977V93.8331C101.628 88.9413 99.243 83.1671 91.804 83.1671C84.365 83.1671 81.9843 88.9413 81.9843 93.8331V132.977C81.9843 133.672 81.4223 134.234 80.7278 134.234H65.1232C64.4241 134.234 63.8621 133.672 63.8667 132.977H63.8712Z" fill="white"/>
<path d="M127.898 87.9447C127.203 87.9447 126.637 87.7801 126.637 87.5744V69.342C126.637 69.1363 127.199 68.9717 127.898 68.9717H143.507C144.202 68.9717 144.768 69.1363 144.768 69.342V87.5744C144.764 87.7801 144.202 87.9447 143.507 87.9447H127.898Z" fill="white"/>
<path d="M2.74163 202.862V146.944C2.74163 146.313 3.24884 145.805 3.87942 145.805H38.054C38.68 145.805 39.1918 146.313 39.1918 146.944V158.552C39.1918 159.178 38.6846 159.69 38.054 159.69H19.0681V167.965H35.4632C36.0892 167.965 36.6009 168.472 36.6009 169.103V180.711C36.6009 181.338 36.0937 181.845 35.4632 181.845H19.0681V190.12H38.054C38.68 190.12 39.1918 190.627 39.1918 191.258V202.862C39.1918 203.488 38.6846 204 38.054 204H3.87942C3.25341 204 2.74163 203.493 2.74163 202.862Z" fill="white"/>
<path fill-rule="evenodd" clip-rule="evenodd" d="M241.968 7.28417H241.923V7.27045C241.722 7.22016 241.521 7.18816 241.31 7.1653L227.534 5.83948L228.603 6.25551C230.933 7.14244 232.103 9.76666 231.212 12.0937L231.13 12.3132V12.3452H231.121C230.997 12.6789 230.888 13.0172 230.792 13.3555C230.412 14.6859 230.234 16.0346 230.234 17.365C230.234 18.1742 230.303 18.9789 230.431 19.7698H230.458V19.9069C230.741 21.5162 231.29 23.0661 232.076 24.4925H232.144V24.6113C232.249 24.7988 232.359 24.9817 232.473 25.1645H232.478V25.1782C232.77 25.64 233.081 26.088 233.424 26.5132H233.492V26.6047C234.159 27.4367 234.927 28.2002 235.777 28.8768H235.85V28.9408C236.458 29.4163 237.106 29.8461 237.792 30.2301H237.874V30.2758C238.057 30.3764 238.244 30.4724 238.432 30.5638H238.55V30.6233C238.751 30.7193 238.962 30.8153 239.167 30.9022H239.227V30.925C239.377 30.989 239.533 31.053 239.688 31.1125C240.159 31.2953 240.63 31.4462 241.105 31.5788H241.585V31.6976C241.95 31.7845 242.311 31.8577 242.677 31.9171H242.932V31.9537L243.316 32.004L245.24 11.9474C245.45 9.77124 244.02 7.80535 241.968 7.28417ZM185.847 42.5008L194.392 20.1813C188.154 16.5009 184.27 9.43292 185.011 1.75227L167.021 0.0195552C165.911 -0.0855965 164.855 0.239003 164.014 0.856198V0.869913H163.996C163.036 1.58312 162.369 2.68492 162.25 3.96046L161.995 6.60297L161.675 9.93582L160.308 24.1496L158.622 41.6962L156.936 59.2474L152.531 105.084L152.55 105.135L156.932 116.272H156.936L157.274 117.136L184.622 45.6965L181.058 45.3491L181.373 42.0711L185.847 42.5008ZM167.953 44.0918L161.401 43.4564L161.716 40.1829L168.268 40.8093L167.953 44.0918ZM177.782 45.0382L171.229 44.4073L171.54 41.1247L177.499 41.7008H177.508L178.093 41.7556L177.782 45.0382Z" fill="white"/>
<path fill-rule="evenodd" clip-rule="evenodd" d="M282.44 33.5994H282.394V33.4577C282.252 33.028 282.047 32.6211 281.782 32.2508H281.718V32.1639C281.457 31.8119 281.137 31.501 280.772 31.2404H280.708V31.1947C280.429 31.0072 280.128 30.8426 279.803 30.7192L262.924 24.2455C259.122 34.1755 247.995 39.1405 238.075 35.3413C228.151 31.533 223.188 20.4052 226.99 10.4752L210.115 4.01067C210.015 3.97409 209.914 3.93752 209.818 3.90551H209.544V3.83237C208.863 3.67235 208.173 3.68607 207.524 3.84608V3.90551H207.291C207.022 3.98781 206.761 4.09753 206.51 4.23011V4.24383H206.478C205.815 4.60043 205.235 5.13076 204.824 5.79824V5.93083H204.746C204.636 6.12284 204.54 6.324 204.458 6.53431L202.315 12.1393L160.053 124.194L161.318 127.408L162.054 129.274H246.766L260.136 94.3406L268.233 73.1639L266.881 72.6473L268.064 69.5705L269.412 70.0871L282.321 36.37L282.394 36.1734V35.9631H282.458C282.673 35.1721 282.654 34.3538 282.44 33.5994ZM231.175 55.4344L237.321 57.7889L236.142 60.8657L229.997 58.5112L231.175 55.4344ZM221.959 51.9004L228.1 54.2549L226.921 57.3317L220.776 54.9772L221.959 51.9004ZM212.733 48.3618L218.884 50.7209L217.705 53.8023L211.554 51.4432L212.733 48.3618ZM203.512 44.8324L204.147 45.0747H204.152L209.658 47.1869L208.479 50.2637L202.338 47.9092L203.512 44.8324ZM194.291 41.2938L200.442 43.6529L199.263 46.7297L193.112 44.3706L194.291 41.2938ZM240.547 95.0218C239.972 95.4972 239.272 95.3692 238.619 95.3692C236.517 95.3829 234.424 95.1498 232.322 95.1681C232.158 95.1681 231.678 95.1452 231.582 95.2641L230.093 98.7752C230.042 99.0769 230.367 99.2644 230.495 99.4747C232.382 102.702 230.353 107.105 226.711 107.553L224.367 119.321C224.152 120.244 223.357 120.761 222.576 120.743C220.926 119.787 218.409 119.33 216.864 118.306C216.622 118.151 216.389 117.68 216.352 117.364C216.247 116.509 216.777 115.874 217.23 115.193C218.582 113.14 220.131 111.137 221.534 109.112C222.201 108.152 222.855 107.164 223.499 106.182C221.091 103.141 223.586 97.7877 227.429 97.8334L228.566 95.1543C228.438 95.0766 228.297 95.0675 228.151 95.0538C223.321 94.6149 218.061 95.072 213.186 94.7063C212.158 94.6286 211.998 94.5966 211.216 93.8971C207.533 90.5962 204.147 86.6233 200.496 83.2448L200.19 83.0619L197.499 89.3801C199.094 92.8501 201.547 95.7258 204.454 97.8426C208.552 100.828 213.46 102.52 218.578 102.689C219.61 102.721 221.031 102.213 221.484 103.502C221.767 104.316 221.324 105.354 220.574 105.761C219.866 106.14 216.279 105.871 215.388 105.761C207.415 104.769 198.545 99.4838 195.031 91.4923C194.707 90.7517 194.309 89.9059 194.611 89.0007C195.47 86.4313 197.028 83.7339 197.96 81.1463L198.002 80.8263L192.244 75.1024C191.527 74.0828 192.189 72.5056 193.423 72.3227L221.136 73.1091C227.899 79.441 234.406 86.1296 241.036 92.6444C241.452 93.4719 241.342 94.3634 240.547 95.0218ZM245.368 64.4043L239.222 62.0498L240.397 58.9684L246.547 61.3275L245.368 64.4043ZM254.585 67.9338L248.443 65.5793L249.618 62.5024L255.768 64.8569L254.585 67.9338ZM263.806 71.4723L257.664 69.1179L258.839 66.0365L264.989 68.3955L263.806 71.4723ZM198.39 75.7104L197.65 75.8201L208.863 86.9022L213.437 91.4192L225.007 91.6569C225.066 91.5197 224.522 91.2226 224.404 91.1357C221.918 89.4258 219.35 87.8257 216.887 86.0747C216.508 85.805 215.676 85.2792 215.416 84.9409C214.79 84.118 215.443 82.5087 216.444 82.2527C217.093 82.0835 217.549 82.4676 218.057 82.7784C222.681 85.6221 226.944 89.2704 231.669 91.9038C232.848 91.7529 234.269 92.1369 235.407 91.9724C235.512 91.9586 235.535 92.0866 235.603 91.8215L219.798 76.2773L198.39 75.7104ZM227.429 101.139C225.345 100.531 224.65 104.33 226.711 104.298C228.388 104.275 228.891 101.564 227.429 101.139ZM220.131 116.093L221.909 116.848C222.192 115.636 222.457 114.411 222.672 113.19C222.722 112.911 222.859 112.459 222.731 112.225L220.131 116.093Z" fill="white"/>
</svg>
