<svg width="11" height="11" viewBox="0 0 11 11" fill="none" xmlns="http://www.w3.org/2000/svg">
<path d="M0.5 5.5C0.5 6.15661 0.629329 6.80679 0.880602 7.41342C1.13188 8.02005 1.50017 8.57124 1.96447 9.03553C2.42876 9.49983 2.97996 9.86813 3.58658 10.1194C4.19321 10.3707 4.84339 10.5 5.5 10.5C6.15661 10.5 6.80679 10.3707 7.41342 10.1194C8.02005 9.86813 8.57124 9.49983 9.03553 9.03553C9.49983 8.57124 9.86813 8.02005 10.1194 7.41342C10.3707 6.80679 10.5 6.15661 10.5 5.5C10.5 4.17392 9.97322 2.90215 9.03553 1.96447C8.09785 1.02678 6.82608 0.5 5.5 0.5C4.17392 0.5 2.90215 1.02678 1.96447 1.96447C1.02678 2.90215 0.5 4.17392 0.5 5.5Z" stroke="#F56F22" stroke-linecap="round" stroke-linejoin="round"/>
<path d="M5.5 2.72217V5.49995L7.16667 7.16661" stroke="#F56F22" stroke-linecap="round" stroke-linejoin="round"/>
</svg>
