<svg width="131" height="21" viewBox="0 0 131 21" fill="none" xmlns="http://www.w3.org/2000/svg">
<path d="M17.1307 0.93854V12.8264C17.1307 16.5466 15.0478 20.9337 8.56534 20.9337C2.08286 20.9337 0 16.5466 0 12.8264V0.93854C0 0.725632 0.172287 0.553345 0.385195 0.553345H5.17002C5.38293 0.553345 5.55522 0.725632 5.55522 0.93854V12.9314C5.55662 14.4302 6.28779 16.1993 8.56814 16.1993C10.8485 16.1993 11.5783 14.4302 11.5783 12.9314V0.93854C11.5783 0.725632 11.7506 0.553345 11.9635 0.553345H16.7469C16.9612 0.553345 17.1335 0.725632 17.1321 0.93854H17.1307Z" fill="#F56F22"/>
<path d="M39.0966 20.3524C38.8837 20.3524 38.71 20.2431 38.71 20.1058V7.96869C38.71 7.83142 38.8822 7.72217 39.0966 7.72217H43.8814C44.0943 7.72217 44.268 7.83142 44.268 7.96869V20.1058C44.2666 20.2431 44.0943 20.3524 43.8814 20.3524H39.0966Z" fill="#F56F22"/>
<path d="M74.382 0.280185C74.4394 0.123306 74.5907 0.0196533 74.7574 0.0196533H79.7999C80.0227 0.0196533 80.2006 0.200345 80.2006 0.420256V0.549122C80.2006 0.595345 80.1921 0.642969 80.1767 0.687792L72.9099 20.2991C72.8524 20.456 72.7012 20.5597 72.5345 20.5597H67.4751C67.3084 20.5597 67.1585 20.4546 67.0997 20.2991L59.8314 0.686391C59.816 0.641569 59.8076 0.595345 59.8076 0.547721V0.418856C59.8076 0.197543 59.9855 0.0196533 60.2082 0.0196533H65.2508C65.4175 0.0196533 65.5673 0.124707 65.6262 0.280185L70.0048 12.0644L74.382 0.280185Z" fill="#F56F22"/>
<path d="M81.0493 20.0218V0.425878C81.0493 0.204566 81.2272 0.0280762 81.4471 0.0280762H93.4302C93.6487 0.0280762 93.828 0.205966 93.828 0.425878V4.49494C93.828 4.71345 93.6501 4.89274 93.4302 4.89274H86.7726V7.79221H92.5225C92.741 7.79221 92.9203 7.9701 92.9203 8.19001V12.2591C92.9203 12.4776 92.7424 12.6569 92.5225 12.6569H86.7726V15.5563H93.4302C93.6487 15.5563 93.828 15.7342 93.828 15.9541V20.0204C93.828 20.2389 93.6501 20.4182 93.4302 20.4182H81.4471C81.2286 20.4182 81.0493 20.2403 81.0493 20.0204V20.0218Z" fill="#F56F22"/>
<path d="M108.561 0.308228H113.458C113.677 0.308228 113.853 0.486118 113.853 0.703228V20.1633C113.853 20.3832 113.675 20.5583 113.458 20.5583H108.398C108.255 20.5583 108.124 20.4827 108.054 20.358L101.703 9.1383V20.1647C101.703 20.3846 101.525 20.5597 101.308 20.5597H96.4123C96.1924 20.5597 96.0173 20.3818 96.0173 20.1647V0.703228C96.0173 0.483316 96.1938 0.308228 96.4123 0.308228H101.483C101.619 0.308228 101.746 0.378263 101.818 0.494522L108.167 10.7197V0.703228C108.167 0.483316 108.344 0.308228 108.561 0.308228Z" fill="#F56F22"/>
<path d="M131 4.62795C131 4.84646 130.822 5.02575 130.602 5.02575H126.127V20.1604C126.127 20.3789 125.949 20.5582 125.729 20.5582H120.8C120.581 20.5582 120.402 20.3803 120.402 20.1604V5.02435H115.927C115.708 5.02435 115.529 4.84786 115.529 4.62655V0.565892C115.529 0.34458 115.707 0.168091 115.927 0.168091H130.603C130.821 0.168091 131 0.345981 131 0.565892V4.62795Z" fill="#F56F22"/>
<path d="M19.5792 19.9937V8.10731C19.5792 4.38702 21.662 0 28.1445 0C34.627 0 36.7098 4.38702 36.7098 8.10731V19.9951C36.7098 20.208 36.5376 20.3803 36.3246 20.3803H31.5398C31.3269 20.3803 31.1546 20.208 31.1546 19.9951V8.00085C31.1532 6.50209 30.4221 4.733 28.1417 4.733C25.8614 4.733 25.1316 6.50209 25.1316 8.00085V19.9937C25.1316 20.2066 24.9593 20.3789 24.7464 20.3789H19.963C19.7487 20.3789 19.5764 20.2066 19.5778 19.9937H19.5792Z" fill="#F56F22"/>
<path d="M39.2059 6.19673C38.993 6.19673 38.8193 6.14631 38.8193 6.08328V0.497247C38.8193 0.434215 38.9916 0.383789 39.2059 0.383789H43.9908C44.2037 0.383789 44.3774 0.434215 44.3774 0.497247V6.08328C44.376 6.14631 44.2037 6.19673 43.9908 6.19673H39.2059Z" fill="#F56F22"/>
<path d="M46.2234 20.2179V0.567293C46.2234 0.345981 46.4027 0.168091 46.6282 0.168091H58.7864C59.0091 0.168091 59.1912 0.345981 59.1912 0.567293V4.64756C59.1912 4.86747 59.0119 5.04676 58.7864 5.04676H52.0307V7.95464H57.8647C58.0874 7.95464 58.2695 8.13253 58.2695 8.35384V12.4341C58.2695 12.654 58.0902 12.8333 57.8647 12.8333H52.0307V15.7412H58.7864C59.0091 15.7412 59.1912 15.9191 59.1912 16.1404V20.2179C59.1912 20.4378 59.0119 20.6171 58.7864 20.6171H46.6282C46.4055 20.6171 46.2234 20.4392 46.2234 20.2179Z" fill="#F56F22"/>
</svg>
